<?xml version="1.0" encoding="UTF-8" standalone="no"?>
<!-- Created with Inkscape (http://www.inkscape.org/) -->

<svg
   xmlns:dc="http://purl.org/dc/elements/1.1/"
   xmlns:cc="http://creativecommons.org/ns#"
   xmlns:rdf="http://www.w3.org/1999/02/22-rdf-syntax-ns#"
   xmlns:svg="http://www.w3.org/2000/svg"
   xmlns="http://www.w3.org/2000/svg"
   xmlns:sodipodi="http://sodipodi.sourceforge.net/DTD/sodipodi-0.dtd"
   xmlns:inkscape="http://www.inkscape.org/namespaces/inkscape"
   width="76.744415mm"
   height="63.588886mm"
   viewBox="0 0 271.92903 225.31495"
   id="svg2"
   version="1.1"
   inkscape:version="0.91 r13725"
   sodipodi:docname="wyobutterfly_acr.svg">
  <defs
     id="defs4">
    <inkscape:path-effect
       effect="spiro"
       id="path-effect5989"
       is_visible="true" />
  </defs>
  <sodipodi:namedview
     id="base"
     pagecolor="#ffffff"
     bordercolor="#666666"
     borderopacity="1.0"
     inkscape:pageopacity="0.0"
     inkscape:pageshadow="2"
     inkscape:zoom="0.9899495"
     inkscape:cx="343.30573"
     inkscape:cy="48.286352"
     inkscape:document-units="px"
     inkscape:current-layer="layer1"
     showgrid="false"
     inkscape:window-width="1680"
     inkscape:window-height="1005"
     inkscape:window-x="0"
     inkscape:window-y="1"
     inkscape:window-maximized="1"
     fit-margin-top="0"
     fit-margin-left="0"
     fit-margin-right="0"
     fit-margin-bottom="0" />
  <metadata
     id="metadata7">
    <rdf:RDF>
      <cc:Work
         rdf:about="">
        <dc:format>image/svg+xml</dc:format>
        <dc:type
           rdf:resource="http://purl.org/dc/dcmitype/StillImage" />
        <dc:title></dc:title>
      </cc:Work>
    </rdf:RDF>
  </metadata>
  <g
     inkscape:label="Layer 1"
     inkscape:groupmode="layer"
     id="layer1"
     transform="translate(-192.32938,-426.0221)">
    <g
       id="g6078">
      <path
         sodipodi:nodetypes="czzzzzzzzzzzzzzcsc"
         inkscape:connector-curvature="0"
         id="path4409"
         d="m 272.99373,572.53975 c -3.69057,-1.0023 -5.8276,-2.50146 -8.58629,-4.29315 -2.75869,-1.79169 -4.90075,-3.62803 -7.82868,-6.43972 -2.92793,-2.81169 -6.52323,-7.3242 -9.47019,-10.60661 -2.94696,-3.28241 -5.7204,-6.40079 -8.20748,-9.09137 -2.48708,-2.69058 -4.17225,-4.55921 -6.69227,-7.07107 -2.52002,-2.51186 -3.93923,-3.61611 -8.46002,-7.95495 -4.52079,-4.33884 -13.79139,-13.46149 -18.56156,-18.18274 -4.77017,-4.72125 -8.3285,-8.00855 -10.10152,-10.10153 -1.77302,-2.09298 -1.01732,-1.00211 -1.26269,-1.76777 -0.24537,-0.76566 -0.455,-1.91545 0,-2.65165 0.455,-0.7362 0.97346,-0.92556 2.27284,-1.13642 1.29938,-0.21086 2.32376,0.0784 5.3033,0.75762 2.97954,0.67922 2.57925,0.2075 12.37437,3.91434 9.79512,3.70684 25.26994,8.8611 45.58313,20.20305 20.31319,11.34195 61.42865,41.31731 73.99368,50.76016 9.45539,7.85518 6.61642,7.09775 -9.06778,6.47566 -15.6842,-0.6221 -44.21362,-1.10886 -51.28884,-2.81385 z"
         style="fill:none;stroke:#0000ff;stroke-width:1px;stroke-linecap:butt;stroke-linejoin:miter;stroke-opacity:1" />
      <path
         sodipodi:nodetypes="sssssssssssssssssss"
         inkscape:connector-curvature="0"
         id="path4411"
         d="m 355.06862,566.47883 c 8.307,-32.72923 3.0752,-44.21774 10.10153,-62.882 4.90732,-13.03546 9.88823,-25.27212 15.9099,-38.63833 5.60097,-12.43238 14.46124,-19.74664 22.47589,-31.06219 2.60475,-3.67753 6.88583,-6.82063 11.36422,-7.32361 2.93742,-0.32991 6.16767,1.01917 8.33376,3.03046 2.70582,2.51244 3.65854,6.51729 4.54568,10.10153 1.9454,7.85981 0.1153,16.26861 1.51523,24.24366 0.87966,5.01118 2.77292,9.79184 4.29315,14.64721 2.46574,7.87516 6.80512,15.29762 7.82868,23.48605 0.42923,3.43386 0.52401,7.13955 -0.75761,10.35406 -0.88618,2.22268 -2.72856,3.99903 -4.54569,5.55584 -2.52165,2.1604 -5.73916,3.34198 -8.58629,5.05076 -4.14692,2.48888 -8.28657,4.99132 -12.37437,7.57614 -6.11755,3.86829 -12.16396,7.84907 -18.18275,11.8693 -5.08694,3.39781 -10.1345,6.85494 -15.15229,10.35406 -4.40668,3.07297 -8.49435,6.63203 -13.13198,9.34391 -2.73059,1.59673 -5.51751,3.27367 -8.5863,4.04061 -1.63539,0.40871 -5.46546,1.88642 -5.05076,0.25254 z"
         style="fill:none;stroke:#0000ff;stroke-width:1px;stroke-linecap:butt;stroke-linejoin:miter;stroke-opacity:1" />
      <path
         sodipodi:nodetypes="cssssssssscc"
         inkscape:connector-curvature="0"
         id="path4413"
         d="m 341.43156,581.37858 c 0,0 -39.95504,-3.96673 -64.64976,-3.283 -2.53701,0.0702 -1.29857,5.09649 -0.75762,7.57615 1.10165,5.04987 4.69223,9.2763 7.82869,13.38452 3.43164,4.49485 7.78284,8.21276 11.86929,12.12183 3.92008,3.74991 7.80808,7.5697 12.12183,10.85914 3.58354,2.73262 7.85701,4.49368 11.36421,7.32361 3.33534,2.69126 5.051,7.66215 9.09138,9.09137 9.1763,3.24597 20.63671,8.05718 30.55711,5.3033 3.89507,-1.08126 6.14891,-6.31505 6.31346,-10.35406 0.44749,-10.98443 -1.51523,-30.05204 -1.51523,-30.05204 l -22.22336,-21.97082"
         style="fill:none;stroke:#0000ff;stroke-width:1px;stroke-linecap:butt;stroke-linejoin:miter;stroke-opacity:1" />
      <path
         sodipodi:nodetypes="cccssssccc"
         inkscape:connector-curvature="0"
         id="path4415"
         d="m 368.95822,587.4395 3.53553,-18.94037 71.97337,-47.7297 c 0,0 12.81587,9.68949 16.16244,16.66751 3.52175,7.34329 3.20672,16.10146 3.03046,24.24367 -0.2402,11.09631 -1.26243,22.59508 -5.55584,32.82995 -2.33185,5.55881 -5.67713,11.17761 -10.6066,14.64721 -6.66625,4.69203 -23.48605,6.81853 -23.48605,6.81853 l -39.90102,-15.15228 z"
         style="fill:none;stroke:#0000ff;stroke-width:1px;stroke-linecap:butt;stroke-linejoin:miter;stroke-opacity:1" />
      <path
         sodipodi:nodetypes="cc"
         inkscape:connector-curvature="0"
         id="path4421"
         d="m 314.15744,606.06418 -12.12183,3.09359"
         style="fill:none;stroke:#0000ff;stroke-width:1px;stroke-linecap:butt;stroke-linejoin:miter;stroke-opacity:1" />
      <path
         sodipodi:nodetypes="cc"
         inkscape:connector-curvature="0"
         id="path4423"
         d="m 335.87572,617.74407 -7.3236,13.8896"
         style="fill:none;stroke:#0000ff;stroke-width:1px;stroke-linecap:butt;stroke-linejoin:miter;stroke-opacity:1" />
      <path
         sodipodi:nodetypes="cc"
         inkscape:connector-curvature="0"
         id="path4425"
         d="m 349.76532,611.68316 10.10152,12.37437"
         style="fill:none;stroke:#0000ff;stroke-width:1px;stroke-linecap:butt;stroke-linejoin:miter;stroke-opacity:1" />
      <path
         sodipodi:nodetypes="cc"
         inkscape:connector-curvature="0"
         id="path4429"
         d="m 298.56321,590.21741 -16.79378,-1.07328"
         style="fill:none;stroke:#0000ff;stroke-width:1px;stroke-linecap:butt;stroke-linejoin:miter;stroke-opacity:1" />
      <ellipse
         ry="2.0978224"
         rx="3.8501213"
         cy="590.31213"
         cx="302.47754"
         id="path4431"
         style="fill:none;stroke:#ff0000;stroke-width:0.78183091;stroke-miterlimit:4;stroke-dasharray:none;stroke-dashoffset:0;stroke-opacity:1" />
      <ellipse
         style="fill:none;stroke:#ff0000;stroke-width:0.78183091;stroke-miterlimit:4;stroke-dasharray:none;stroke-dashoffset:0;stroke-opacity:1"
         id="ellipse4433"
         cx="317.6561"
         cy="605.04425"
         rx="3.8501213"
         ry="2.0978224" />
      <ellipse
         ry="2.0978224"
         rx="3.8501213"
         cy="615.49066"
         cx="337.20966"
         id="ellipse4435"
         style="fill:none;stroke:#ff0000;stroke-width:0.78183091;stroke-miterlimit:4;stroke-dasharray:none;stroke-dashoffset:0;stroke-opacity:1" />
      <ellipse
         style="fill:none;stroke:#ff0000;stroke-width:0.78183091;stroke-miterlimit:4;stroke-dasharray:none;stroke-dashoffset:0;stroke-opacity:1"
         id="ellipse4437"
         cx="346.76321"
         cy="609.50854"
         rx="3.8501213"
         ry="2.0978224" />
      <ellipse
         ry="2.0978224"
         rx="3.8501213"
         cy="599.77643"
         cx="346.04892"
         id="ellipse4439"
         style="fill:none;stroke:#ff0000;stroke-width:0.78183091;stroke-miterlimit:4;stroke-dasharray:none;stroke-dashoffset:0;stroke-opacity:1" />
      <path
         inkscape:connector-curvature="0"
         id="path4441"
         d="m 349.55357,600.66577 9.91072,4.82143"
         style="fill:none;stroke:#0000ff;stroke-width:1px;stroke-linecap:butt;stroke-linejoin:miter;stroke-opacity:1" />
      <path
         inkscape:connector-curvature="0"
         id="path4443"
         d="m 304.91072,592.45149 10.35714,10.71428"
         style="fill:none;stroke:#0000ff;stroke-width:1px;stroke-linecap:butt;stroke-linejoin:miter;stroke-opacity:1" />
      <path
         inkscape:connector-curvature="0"
         id="path4445"
         d="m 320.44643,606.64792 13.66071,7.23214"
         style="fill:none;stroke:#0000ff;stroke-width:1px;stroke-linecap:butt;stroke-linejoin:miter;stroke-opacity:1" />
      <path
         inkscape:connector-curvature="0"
         id="path4447"
         d="m 340.08929,614.05863 3.75,-3.48214"
         style="fill:none;stroke:#0000ff;stroke-width:1px;stroke-linecap:butt;stroke-linejoin:miter;stroke-opacity:1" />
      <path
         inkscape:connector-curvature="0"
         id="path4449"
         d="m 346.51786,607.09435 -0.0893,-5"
         style="fill:none;stroke:#0000ff;stroke-width:1px;stroke-linecap:butt;stroke-linejoin:miter;stroke-opacity:1" />
      <ellipse
         style="fill:none;stroke:#ff0000;stroke-width:0.78183091;stroke-miterlimit:4;stroke-dasharray:none;stroke-dashoffset:0;stroke-opacity:1"
         id="ellipse4451"
         cx="285.81003"
         cy="551.67383"
         rx="3.8501213"
         ry="2.0978224" />
      <ellipse
         ry="2.0978224"
         rx="3.8501213"
         cy="551.92639"
         cx="258.28339"
         id="ellipse4453"
         style="fill:none;stroke:#ff0000;stroke-width:0.78183091;stroke-miterlimit:4;stroke-dasharray:none;stroke-dashoffset:0;stroke-opacity:1" />
      <ellipse
         style="fill:none;stroke:#ff0000;stroke-width:0.78183091;stroke-miterlimit:4;stroke-dasharray:none;stroke-dashoffset:0;stroke-opacity:1"
         id="ellipse4455"
         cx="260.80878"
         cy="536.01648"
         rx="3.8501213"
         ry="2.0978224" />
      <ellipse
         ry="2.0978224"
         rx="3.8501213"
         cy="535.76392"
         cx="245.65649"
         id="ellipse4457"
         style="fill:none;stroke:#ff0000;stroke-width:0.78183091;stroke-miterlimit:4;stroke-dasharray:none;stroke-dashoffset:0;stroke-opacity:1" />
      <ellipse
         style="fill:none;stroke:#ff0000;stroke-width:0.78183091;stroke-miterlimit:4;stroke-dasharray:none;stroke-dashoffset:0;stroke-opacity:1"
         id="ellipse4459"
         cx="241.86842"
         cy="521.36926"
         rx="3.8501213"
         ry="2.0978224" />
      <ellipse
         ry="2.0978224"
         rx="3.8501213"
         cy="521.87433"
         cx="229.7466"
         id="ellipse4461"
         style="fill:none;stroke:#ff0000;stroke-width:0.78183091;stroke-miterlimit:4;stroke-dasharray:none;stroke-dashoffset:0;stroke-opacity:1" />
      <ellipse
         style="fill:none;stroke:#ff0000;stroke-width:0.78183091;stroke-miterlimit:4;stroke-dasharray:none;stroke-dashoffset:0;stroke-opacity:1"
         id="ellipse4463"
         cx="220.90776"
         cy="510.25757"
         rx="3.8501213"
         ry="2.0978224" />
      <path
         sodipodi:nodetypes="cc"
         inkscape:connector-curvature="0"
         id="path4465"
         d="m 224.00133,511.93059 14.89405,8.13419"
         style="fill:none;stroke:#0000ff;stroke-width:1px;stroke-linecap:butt;stroke-linejoin:miter;stroke-opacity:1" />
      <path
         inkscape:connector-curvature="0"
         id="path4467"
         d="m 233.68304,521.71488 4.50893,0.0446"
         style="fill:none;stroke:#0000ff;stroke-width:1px;stroke-linecap:butt;stroke-linejoin:miter;stroke-opacity:1" />
      <path
         inkscape:connector-curvature="0"
         id="path4469"
         d="m 243.79464,523.2997 13.97322,11.20536"
         style="fill:none;stroke:#0000ff;stroke-width:1px;stroke-linecap:butt;stroke-linejoin:miter;stroke-opacity:1" />
      <path
         inkscape:connector-curvature="0"
         id="path4471"
         d="M 257.09822,536.46935 249.375,535.93363"
         style="fill:none;stroke:#0000ff;stroke-width:1px;stroke-linecap:butt;stroke-linejoin:miter;stroke-opacity:1" />
      <path
         inkscape:connector-curvature="0"
         id="path4473"
         d="m 264.19643,537.18363 18.48214,13.03572"
         style="fill:none;stroke:#0000ff;stroke-width:1px;stroke-linecap:butt;stroke-linejoin:miter;stroke-opacity:1" />
      <path
         inkscape:connector-curvature="0"
         id="path4475"
         d="m 282.05357,551.82649 -20.13393,0"
         style="fill:none;stroke:#0000ff;stroke-width:1px;stroke-linecap:butt;stroke-linejoin:miter;stroke-opacity:1" />
      <path
         inkscape:connector-curvature="0"
         id="path4477"
         d="m 288.97322,552.6747 31.25,13.52679"
         style="fill:none;stroke:#0000ff;stroke-width:1px;stroke-linecap:butt;stroke-linejoin:miter;stroke-opacity:1" />
      <ellipse
         transform="matrix(0.84779242,-0.53032822,0.53032822,0.84779242,0,0)"
         style="fill:none;stroke:#ff0000;stroke-width:0.78183091;stroke-miterlimit:4;stroke-dasharray:none;stroke-dashoffset:0;stroke-opacity:1"
         id="ellipse4479"
         cx="19.584484"
         cy="702.57959"
         rx="3.8501213"
         ry="2.0978224" />
      <ellipse
         ry="2.0978224"
         rx="3.8501213"
         cy="714.51196"
         cx="38.659813"
         id="ellipse4481"
         style="fill:none;stroke:#ff0000;stroke-width:0.78183091;stroke-miterlimit:4;stroke-dasharray:none;stroke-dashoffset:0;stroke-opacity:1"
         transform="matrix(0.84779242,-0.53032822,0.53032822,0.84779242,0,0)" />
      <ellipse
         transform="matrix(0.84779242,-0.53032822,0.53032822,0.84779242,0,0)"
         style="fill:none;stroke:#ff0000;stroke-width:0.78183091;stroke-miterlimit:4;stroke-dasharray:none;stroke-dashoffset:0;stroke-opacity:1"
         id="ellipse4483"
         cx="61.051655"
         cy="716.09174"
         rx="3.8501213"
         ry="2.0978224" />
      <ellipse
         ry="2.0978224"
         rx="3.8501213"
         cy="706.2691"
         cx="73.430946"
         id="ellipse4485"
         style="fill:none;stroke:#ff0000;stroke-width:0.78183091;stroke-miterlimit:4;stroke-dasharray:none;stroke-dashoffset:0;stroke-opacity:1"
         transform="matrix(0.84779242,-0.53032822,0.53032822,0.84779242,0,0)" />
      <ellipse
         transform="matrix(0.84779242,-0.53032822,0.53032822,0.84779242,0,0)"
         style="fill:none;stroke:#ff0000;stroke-width:0.78183091;stroke-miterlimit:4;stroke-dasharray:none;stroke-dashoffset:0;stroke-opacity:1"
         id="ellipse4487"
         cx="74.477898"
         cy="691.12671"
         rx="3.8501213"
         ry="2.0978224" />
      <path
         inkscape:connector-curvature="0"
         id="path4489"
         d="m 448.03572,529.32649 -15.89286,14.64286"
         style="fill:none;stroke:#0000ff;stroke-width:1px;stroke-linecap:butt;stroke-linejoin:miter;stroke-opacity:1" />
      <path
         inkscape:connector-curvature="0"
         id="path4491"
         d="m 430.89286,548.6122 5.17857,7.67858"
         style="fill:none;stroke:#0000ff;stroke-width:1px;stroke-linecap:butt;stroke-linejoin:miter;stroke-opacity:1" />
      <path
         inkscape:connector-curvature="0"
         id="path4493"
         d="m 439.46429,557.71935 16.42857,-6.25"
         style="fill:none;stroke:#0000ff;stroke-width:1px;stroke-linecap:butt;stroke-linejoin:miter;stroke-opacity:1" />
      <path
         inkscape:connector-curvature="0"
         id="path4495"
         d="m 457.85714,574.50506 -22.67857,0.17857"
         style="fill:none;stroke:#0000ff;stroke-width:1px;stroke-linecap:butt;stroke-linejoin:miter;stroke-opacity:1" />
      <path
         inkscape:connector-curvature="0"
         id="path4497"
         d="M 451.60714,596.46935 414.46429,586.1122"
         style="fill:none;stroke:#0000ff;stroke-width:1px;stroke-linecap:butt;stroke-linejoin:miter;stroke-opacity:1" />
      <path
         inkscape:connector-curvature="0"
         id="path4499"
         d="m 429.10714,608.79078 -38.92857,-21.25"
         style="fill:none;stroke:#0000ff;stroke-width:1px;stroke-linecap:butt;stroke-linejoin:miter;stroke-opacity:1" />
      <path
         inkscape:connector-curvature="0"
         id="path4501"
         d="m 391.96429,584.8622 16.25,1.07143"
         style="fill:none;stroke:#0000ff;stroke-width:1px;stroke-linecap:butt;stroke-linejoin:miter;stroke-opacity:1" />
      <path
         inkscape:connector-curvature="0"
         id="path4503"
         d="m 415.71429,584.14792 12.14285,-6.96429"
         style="fill:none;stroke:#0000ff;stroke-width:1px;stroke-linecap:butt;stroke-linejoin:miter;stroke-opacity:1" />
      <path
         inkscape:connector-curvature="0"
         id="path4505"
         d="m 434.10714,572.00506 1.96429,-10"
         style="fill:none;stroke:#0000ff;stroke-width:1px;stroke-linecap:butt;stroke-linejoin:miter;stroke-opacity:1" />
      <ellipse
         ry="2.0978224"
         rx="3.8501213"
         cy="647.78809"
         cx="94.426476"
         id="ellipse4507"
         style="fill:none;stroke:#ff0000;stroke-width:0.78183091;stroke-miterlimit:4;stroke-dasharray:none;stroke-dashoffset:0;stroke-opacity:1"
         transform="matrix(0.84779242,-0.53032822,0.53032822,0.84779242,0,0)" />
      <ellipse
         transform="matrix(0.84779242,-0.53032822,0.53032822,0.84779242,0,0)"
         style="fill:none;stroke:#ff0000;stroke-width:0.78183091;stroke-miterlimit:4;stroke-dasharray:none;stroke-dashoffset:0;stroke-opacity:1"
         id="ellipse4509"
         cx="67.420135"
         cy="635.73907"
         rx="3.8501213"
         ry="2.0978224" />
      <ellipse
         ry="2.0978224"
         rx="3.8501213"
         cy="622.45728"
         cx="82.889908"
         id="ellipse4511"
         style="fill:none;stroke:#ff0000;stroke-width:0.78183091;stroke-miterlimit:4;stroke-dasharray:none;stroke-dashoffset:0;stroke-opacity:1"
         transform="matrix(0.84779242,-0.53032822,0.53032822,0.84779242,0,0)" />
      <ellipse
         transform="matrix(0.84779242,-0.53032822,0.53032822,0.84779242,0,0)"
         style="fill:none;stroke:#ff0000;stroke-width:0.78183091;stroke-miterlimit:4;stroke-dasharray:none;stroke-dashoffset:0;stroke-opacity:1"
         id="ellipse4513"
         cx="102.47741"
         cy="631.5506"
         rx="3.8501213"
         ry="2.0978224" />
      <ellipse
         ry="2.0978224"
         rx="3.8501213"
         cy="615.21771"
         cx="108.69231"
         id="ellipse4515"
         style="fill:none;stroke:#ff0000;stroke-width:0.78183091;stroke-miterlimit:4;stroke-dasharray:none;stroke-dashoffset:0;stroke-opacity:1"
         transform="matrix(0.84779242,-0.53032822,0.53032822,0.84779242,0,0)" />
      <ellipse
         transform="matrix(0.84779242,-0.53032822,0.53032822,0.84779242,0,0)"
         style="fill:none;stroke:#ff0000;stroke-width:0.78183091;stroke-miterlimit:4;stroke-dasharray:none;stroke-dashoffset:0;stroke-opacity:1"
         id="ellipse4517"
         cx="114.32098"
         cy="597.4649"
         rx="3.8501213"
         ry="2.0978224" />
      <ellipse
         ry="2.0978224"
         rx="3.8501213"
         cy="610.32861"
         cx="94.478874"
         id="ellipse4519"
         style="fill:none;stroke:#ff0000;stroke-width:0.78183091;stroke-miterlimit:4;stroke-dasharray:none;stroke-dashoffset:0;stroke-opacity:1"
         transform="matrix(0.84779242,-0.53032822,0.53032822,0.84779242,0,0)" />
      <path
         inkscape:connector-curvature="0"
         id="path4521"
         d="M 366.42857,552.71935 390.89286,504.8622"
         style="fill:none;stroke:#0000ff;stroke-width:1px;stroke-linecap:butt;stroke-linejoin:miter;stroke-opacity:1" />
      <path
         inkscape:connector-curvature="0"
         id="path4523"
         d="m 398.39286,501.82649 22.67857,-1.96429"
         style="fill:none;stroke:#0000ff;stroke-width:1px;stroke-linecap:butt;stroke-linejoin:miter;stroke-opacity:1" />
      <path
         inkscape:connector-curvature="0"
         id="path4525"
         d="m 394.82143,500.75506 3.21429,-15.17857"
         style="fill:none;stroke:#0000ff;stroke-width:1px;stroke-linecap:butt;stroke-linejoin:miter;stroke-opacity:1" />
      <path
         inkscape:connector-curvature="0"
         id="path4527"
         d="m 404.46429,482.54077 14.64285,-0.89285"
         style="fill:none;stroke:#0000ff;stroke-width:1px;stroke-linecap:butt;stroke-linejoin:miter;stroke-opacity:1" />
      <path
         inkscape:connector-curvature="0"
         id="path4529"
         d="m 399.82143,481.46935 1.07143,-12.85715"
         style="fill:none;stroke:#0000ff;stroke-width:1px;stroke-linecap:butt;stroke-linejoin:miter;stroke-opacity:1" />
      <path
         inkscape:connector-curvature="0"
         id="path4531"
         d="m 408.21429,465.21935 6.42857,-0.17858"
         style="fill:none;stroke:#0000ff;stroke-width:1px;stroke-linecap:butt;stroke-linejoin:miter;stroke-opacity:1" />
      <path
         inkscape:connector-curvature="0"
         id="path4533"
         d="m 403.92857,464.50506 6.42857,-16.42857"
         style="fill:none;stroke:#0000ff;stroke-width:1px;stroke-linecap:butt;stroke-linejoin:miter;stroke-opacity:1" />
      <path
         inkscape:connector-curvature="0"
         id="path4535"
         d="m 328.57143,551.29078 -8.21429,-5 -10,-2.14286"
         style="fill:none;stroke:#0000ff;stroke-width:1px;stroke-linecap:butt;stroke-linejoin:miter;stroke-opacity:1" />
      <path
         sodipodi:nodetypes="cssc"
         inkscape:connector-curvature="0"
         id="path4537"
         d="m 332.14286,549.50506 c 0,0 1.31269,-8.40901 2.49999,-11.78571 3.0345,-8.63015 12.29765,-14.42464 12.14287,-23.57143 -0.0705,-4.16607 -5.71429,-7.85714 -5.71429,-7.85714"
         style="fill:none;stroke:#0000ff;stroke-width:1px;stroke-linecap:butt;stroke-linejoin:miter;stroke-opacity:1" />
      <path
         sodipodi:nodetypes="sscccccccccccccccss"
         inkscape:connector-curvature="0"
         id="path4541"
         d="m 327.41569,555.11462 c -0.0285,-3.18232 7.01323,-4.69977 9.72273,-3.03047 2.48915,1.53356 0.50507,7.82869 0.50507,7.82869 l 18.05648,15.27856 21.84454,27.65292 0,7.57615 -3.03045,0.63134 -3.78808,-2.90419 -13.57392,-18.81409 -2.50959,-2.99889 -2.88841,-2.17815 -3.07781,-2.24127 -3.0778,-2.80948 -5.54007,-3.31456 0.7734,-1.04173 -0.36302,-1.79933 c -3.53384,-3.15656 -5.22438,-4.70352 -5.22438,-4.70352 0,0 -1.31498,-0.71539 -3.393,-3.55111 -2.25026,-3.07077 -4.41399,-7.16044 -4.43569,-9.58087 z"
         style="fill:none;stroke:#ff0000;stroke-width:1px;stroke-linecap:butt;stroke-linejoin:miter;stroke-opacity:1" />
      <path
         style="fill:none;stroke:#ff0000;stroke-width:1px;stroke-linecap:butt;stroke-linejoin:miter;stroke-opacity:1"
         d="m 338.70749,576.5565 c 0.88396,4.6409 0.36642,4.59777 -15.31778,3.97567 -3.92105,-0.15552 -8.64493,-0.30259 -13.6357,-0.46235 -4.99077,-0.15976 -10.24845,-0.3322 -15.23709,-0.53849 -4.98864,-0.20629 -9.70825,-0.44642 -13.6229,-0.74154 -3.91465,-0.29511 -7.02435,-0.64522 -8.79315,-1.07147 -3.69057,-1.0023 -5.8276,-2.50146 -8.58629,-4.29315 -2.75869,-1.79169 -4.90075,-3.62803 -7.82868,-6.43972 -2.92793,-2.81169 -6.52323,-7.3242 -9.47019,-10.60661 -2.94696,-3.28241 -5.7204,-6.40079 -8.20748,-9.09137 -2.48708,-2.69058 -4.17225,-4.55921 -6.69227,-7.07107 -2.52002,-2.51186 -3.93923,-3.61611 -8.46002,-7.95495 -4.52079,-4.33884 -13.79139,-13.46149 -18.56156,-18.18274 -4.77017,-4.72125 -8.3285,-8.00855 -10.10152,-10.10153 -1.77302,-2.09298 -1.01732,-1.00211 -1.26269,-1.76777 -0.10618,-1.97768 -0.3371,-5.62687 0.6657,-5.93093"
         id="path4551"
         inkscape:connector-curvature="0"
         sodipodi:nodetypes="cssssczzzzzzzzcc" />
      <path
         style="fill:none;stroke:#ff0000;stroke-width:1px;stroke-linecap:butt;stroke-linejoin:miter;stroke-opacity:1"
         d="m 339.06464,574.05651 c 0,0 0.90213,1.91918 -14.78207,1.29709 -15.6842,-0.6221 -44.21362,-1.10886 -51.28884,-2.81385 -3.69057,-1.0023 -5.8276,-2.50146 -8.58629,-4.29315 -2.75869,-1.79169 -4.90075,-3.62803 -7.82868,-6.43972 -2.92793,-2.81169 -6.52323,-7.3242 -9.47019,-10.60661 -2.94696,-3.28241 -5.7204,-6.40079 -8.20748,-9.09137 -2.48708,-2.69058 -4.17225,-4.55921 -6.69227,-7.07107 -2.52002,-2.51186 -3.93923,-3.61611 -8.46002,-7.95495 m 0,0 c -4.52079,-4.33884 -13.79139,-13.46149 -18.56156,-18.18274 m 0,0 c -4.77017,-4.72125 -8.3285,-8.00855 -10.10152,-10.10153 -1.77302,-2.09298 -1.01732,-1.00211 -1.26269,-1.76777 -0.24537,-0.76566 -0.455,-1.91545 0,-2.65165"
         id="path4557"
         inkscape:connector-curvature="0"
         sodipodi:nodetypes="csczzzzzcccczzc" />
      <path
         style="fill:none;stroke:#ff00ff;stroke-width:1px;stroke-linecap:butt;stroke-linejoin:miter;stroke-opacity:0"
         d="m 341.43156,581.37858 c 0,0 -39.95504,-3.96673 -64.64976,-3.283 -2.53701,0.0702 -1.29857,5.09649 -0.75762,7.57615 1.10165,5.04987 4.69223,9.2763 7.82869,13.38452 3.43164,4.49485 7.78284,8.21276 11.86929,12.12183 3.92008,3.74991 7.80808,7.5697 12.12183,10.85914 3.58354,2.73262 7.85701,4.49368 11.36421,7.32361 3.33534,2.69126 5.051,7.66215 9.09138,9.09137 9.1763,3.24597 20.63671,8.05718 30.55711,5.3033 3.89507,-1.08126 6.14891,-6.31505 6.31346,-10.35406 0.44749,-10.98443 -1.51523,-30.05204 -1.51523,-30.05204 z"
         id="path4559"
         inkscape:connector-curvature="0"
         sodipodi:nodetypes="cssssssssscc" />
      <path
         inkscape:connector-curvature="0"
         id="path4565"
         d="m 355.30632,566.32059 0,6.21876"
         style="fill:none;stroke:#ff0000;stroke-width:1px;stroke-linecap:butt;stroke-linejoin:miter;stroke-opacity:1" />
      <path
         style="fill:none;stroke:#ff0000;stroke-width:1px;stroke-linecap:butt;stroke-linejoin:miter;stroke-opacity:1"
         d="m 365.23489,634.17773 0,6.21876"
         id="path4567"
         inkscape:connector-curvature="0" />
      <path
         sodipodi:nodetypes="csssccc"
         inkscape:connector-curvature="0"
         id="path4569"
         d="m 276.02418,583.86264 c 0,0 4.69223,11.41915 7.82869,15.52737 3.43164,4.49485 7.78284,8.21276 11.86929,12.12183 3.92008,3.74991 7.80808,7.5697 12.12183,10.85914 3.58354,2.73262 7.85701,4.49368 11.36421,7.32361 9.16651,10.92001 27.43126,17.42837 39.64849,14.39467 3.89507,-1.08126 6.14891,-6.31505 6.31346,-10.35406"
         style="fill:none;stroke:#ff0000;stroke-width:1px;stroke-linecap:butt;stroke-linejoin:miter;stroke-opacity:1" />
      <path
         style="fill:none;stroke:#ff0000;stroke-width:1px;stroke-linecap:butt;stroke-linejoin:miter;stroke-opacity:1"
         d="m 463.66002,567.68061 c -0.2402,11.09631 -1.26243,22.59508 -5.55584,32.82995 -2.33185,5.55881 -5.67713,11.17761 -10.6066,14.64721 -6.66625,4.69203 -23.48605,6.81853 -23.48605,6.81853 l -39.90102,-15.15228 -3.78807,-3.34613 c 0,0 -2.52539,-2.23075 -3.78808,-3.34613 -1.26269,-1.11538 -3.78807,-3.34613 -3.78807,-3.34613 l -3.78807,-3.34613"
         id="path4571"
         inkscape:connector-curvature="0"
         sodipodi:nodetypes="csscccscc" />
      <path
         sodipodi:nodetypes="csscccscc"
         inkscape:connector-curvature="0"
         id="path4573"
         d="m 463.66002,561.68061 c -0.2402,11.09631 -1.26243,22.59508 -5.55584,32.82995 -2.33185,5.55881 -5.67713,11.17761 -10.6066,14.64721 -6.66625,4.69203 -23.48605,6.81853 -23.48605,6.81853 l -39.90102,-15.15228 -3.78807,-3.34613 c 0,0 -2.52539,-2.23075 -3.78808,-3.34613 -1.26269,-1.11538 -3.78807,-3.34613 -3.78807,-3.34613 l -3.78807,-3.34613"
         style="fill:none;stroke:#ff0000;stroke-width:1px;stroke-linecap:butt;stroke-linejoin:miter;stroke-opacity:1" />
      <path
         style="fill:none;stroke:#ff0000;stroke-width:1px;stroke-linecap:butt;stroke-linejoin:miter;stroke-opacity:1"
         d="m 369.41346,587.57059 0,6.21876"
         id="path4575"
         inkscape:connector-curvature="0" />
      <path
         style="fill:none;stroke:#ff0000;stroke-width:1px;stroke-linecap:butt;stroke-linejoin:miter;stroke-opacity:1"
         d="m 441.43666,502.08161 c 0.42923,3.43386 0.52401,7.13955 -0.75761,10.35406 -0.88618,2.22268 -2.72856,3.99903 -4.54569,5.55584 -2.52165,2.1604 -5.73916,3.34198 -8.58629,5.05076 -4.14692,2.48888 -8.28657,4.99132 -12.37437,7.57614 -6.11755,3.86829 -12.16396,7.84907 -18.18275,11.8693 -5.08694,3.39781 -10.1345,6.85494 -15.15229,10.35406 -4.40668,3.07297 -8.49435,6.63203 -13.13198,9.34391 -2.73059,1.59673 -5.51751,3.27367 -8.5863,4.04061 -1.63539,0.40871 -5.46546,1.88642 -5.05076,0.25254"
         id="path4577"
         inkscape:connector-curvature="0"
         sodipodi:nodetypes="cssssssssc" />
      <path
         sodipodi:nodetypes="cssssssssc"
         inkscape:connector-curvature="0"
         id="path4579"
         d="m 441.43666,508.08161 c 0.42923,3.43386 0.52401,7.13955 -0.75761,10.35406 -0.88618,2.22268 -2.72856,3.99903 -4.54569,5.55584 -2.52165,2.1604 -5.73916,3.34198 -8.58629,5.05076 -4.14692,2.48888 -8.28657,4.99132 -12.37437,7.57614 -6.11755,3.86829 -12.16396,7.84907 -18.18275,11.8693 -5.08694,3.39781 -10.1345,6.85494 -15.15229,10.35406 -4.40668,3.07297 -8.49435,6.63203 -13.13198,9.34391 -2.73059,1.59673 -5.51751,3.27367 -8.5863,4.04061 -1.63539,0.40871 -5.46546,1.88642 -5.05076,0.25254"
         style="fill:none;stroke:#ff0000;stroke-width:1px;stroke-linecap:butt;stroke-linejoin:miter;stroke-opacity:1" />
      <path
         style="fill:none;stroke:#ff0000;stroke-width:1px;stroke-linecap:butt;stroke-linejoin:miter;stroke-opacity:1"
         d="m 275.66703,592.36263 c 0,0 5.04938,8.91916 8.18584,13.02738 3.43164,4.49485 7.78284,8.21276 11.86929,12.12183 3.92008,3.74991 7.80808,7.5697 12.12183,10.85914 3.58354,2.73262 7.85701,4.49368 11.36421,7.32361 9.16651,10.92001 27.43126,17.42837 39.64849,14.39467 3.89507,-1.08126 6.14891,-6.31505 6.31346,-10.35406"
         id="path5985"
         inkscape:connector-curvature="0"
         sodipodi:nodetypes="csssccc" />
      <path
         inkscape:connector-curvature="0"
         inkscape:original-d="m 275.64286,583.79076 0,7.85714"
         inkscape:path-effect="#path-effect5989"
         id="path5987"
         d="m 275.64286,583.79076 0,7.85714"
         style="fill:none;stroke:#ff0000;stroke-width:1px;stroke-linecap:butt;stroke-linejoin:miter;stroke-opacity:1" />
    </g>
  </g>
</svg>
