<?xml version="1.0" encoding="UTF-8" standalone="no"?>
<svg
   xmlns:dc="http://purl.org/dc/elements/1.1/"
   xmlns:cc="http://creativecommons.org/ns#"
   xmlns:rdf="http://www.w3.org/1999/02/22-rdf-syntax-ns#"
   xmlns:svg="http://www.w3.org/2000/svg"
   xmlns="http://www.w3.org/2000/svg"
   xmlns:sodipodi="http://sodipodi.sourceforge.net/DTD/sodipodi-0.dtd"
   xmlns:inkscape="http://www.inkscape.org/namespaces/inkscape"
   width="147.9000000000009mm"
   height="78.15000000000002mm"
   viewBox="0 0 147.9000000000009 78.15000000000002"
   version="1.1"
   id="svg35"
   sodipodi:docname="back_cover_acr3mm.svg"
   inkscape:version="0.92.4 (unknown)">
  <metadata
     id="metadata41">
    <rdf:RDF>
      <cc:Work
         rdf:about="">
        <dc:format>image/svg+xml</dc:format>
        <dc:type
           rdf:resource="http://purl.org/dc/dcmitype/StillImage" />
      </cc:Work>
    </rdf:RDF>
  </metadata>
  <defs
     id="defs39" />
  <sodipodi:namedview
     pagecolor="#ffffff"
     bordercolor="#666666"
     borderopacity="1"
     objecttolerance="10"
     gridtolerance="10"
     guidetolerance="10"
     inkscape:pageopacity="0"
     inkscape:pageshadow="2"
     inkscape:window-width="1920"
     inkscape:window-height="1000"
     id="namedview37"
     showgrid="false"
     inkscape:zoom="4.5198132"
     inkscape:cx="-10.603989"
     inkscape:cy="321.97165"
     inkscape:window-x="0"
     inkscape:window-y="42"
     inkscape:window-maximized="1"
     inkscape:current-layer="Body027" />
  <g
     id="Body027"
     transform="translate(74.950000,39.075000) scale(1,-1)"
     style="stroke-width:0.1;stroke-miterlimit:4;stroke-dasharray:none;fill:none">
    <path
       id="Body027_f0000"
       d="M -71.50000000000085 4.275000000001719 L -71.50000000000085 4.275000000001719 L -71.5 31.625000000000185 L -71.5 31.625000000000185 L -71.50000000000085 4.275000000001719 Z "
       style="stroke-width:0.1;stroke-miterlimit:4;stroke-dasharray:none;fill:none;fill-opacity:0.5;fill-rule:evenodd"
       stroke-width="0.35 px"
       stroke="#191919" />
    <path
       id="Body027_f0001"
       d="M -73.50000000000085 4.275000000001719 L -71.50000000000085 4.275000000001719 L -71.50000000000085 4.275000000001719 L -73.50000000000085 4.275000000001719 L -73.50000000000085 4.275000000001719 Z "
       style="stroke-width:0.1;stroke-miterlimit:4;stroke-dasharray:none;fill:none;fill-opacity:0.5;fill-rule:evenodd"
       stroke-width="0.35 px"
       stroke="#191919" />
    <path
       id="Body027_f0002"
       d="M -71.5 31.62500000000018 A 6 6 0 0 0 -65.5 37.625L -65.5 37.625 A 6 6 0 0 1 -71.5 31.625L -71.5 31.625000000000185 Z "
       style="stroke-width:0.1;stroke-miterlimit:4;stroke-dasharray:none;fill:none;fill-opacity:0.5;fill-rule:evenodd"
       stroke-width="0.35 px"
       stroke="#191919" />
    <circle
       cx="61.65000000000001"
       cy="33.85"
       r="1.6"
       style="stroke-width:0.1;stroke-miterlimit:4;stroke-dasharray:none;fill:none"
       id="circle5"
       stroke-width="0.35 px"
       stroke="#191919" />
    <circle
       cx="61.65000000000001"
       cy="33.85"
       r="1.6"
       style="stroke-width:0.1;stroke-miterlimit:4;stroke-dasharray:none;fill:none"
       id="circle7"
       stroke-width="0.35 px"
       stroke="#191919" />
    <path
       id="Body027_f0005"
       d="M -73.50000000000085 -31.324999999998283 L -73.50000000000085 4.275000000001719 L -73.50000000000085 4.275000000001719 L -73.50000000000085 -31.324999999998283 L -73.50000000000085 -31.324999999998283 Z "
       style="stroke-width:0.1;stroke-miterlimit:4;stroke-dasharray:none;fill:none;fill-opacity:0.5;fill-rule:evenodd"
       stroke-width="0.35 px"
       stroke="#191919" />
    <path
       id="Body027_f0006"
       d="M -65.5 37.625 L -65.5 37.625 L 65.5 37.625 L 65.5 37.625 L -65.5 37.625 Z "
       style="stroke-width:0.1;stroke-miterlimit:4;stroke-dasharray:none;fill:none;fill-opacity:0.5;fill-rule:evenodd"
       stroke-width="0.35 px"
       stroke="#191919" />
    <path
       id="Body027_f0007"
       d="M -71.5000000000017 -31.324999999998283 L -73.50000000000085 -31.324999999998283 L -73.50000000000085 -31.324999999998283 L -71.5000000000017 -31.324999999998283 L -71.5000000000017 -31.324999999998283 Z "
       style="stroke-width:0.1;stroke-miterlimit:4;stroke-dasharray:none;fill:none;fill-opacity:0.5;fill-rule:evenodd"
       stroke-width="0.35 px"
       stroke="#191919" />
    <path
       id="Body027_f0008"
       d="M 65.49999999999999 37.625 A 6 6 0 0 0 71.5 31.625L 71.49999999999999 31.625000000000004 A 6 6 0 0 1 65.5 37.625L 65.5 37.625 Z "
       style="stroke-width:0.1;stroke-miterlimit:4;stroke-dasharray:none;fill:none;fill-opacity:0.5;fill-rule:evenodd"
       stroke-width="0.35 px"
       stroke="#191919" />
    <path
       id="Body027_f0009"
       d="M -71.5000000000017 -31.624999999998284 L -71.5000000000017 -31.624999999998284 L -71.5000000000017 -31.324999999998283 L -71.5000000000017 -31.324999999998283 L -71.5000000000017 -31.624999999998284 Z "
       style="stroke-width:0.1;stroke-miterlimit:4;stroke-dasharray:none;fill:none;fill-opacity:0.5;fill-rule:evenodd"
       stroke-width="0.35 px"
       stroke="#191919" />
    <path
       id="Body027_f0010"
       d="M 71.49999999999999 31.625000000000004 L 71.49999999999999 31.625000000000004 L 71.49999999999999 31.325000000000003 L 71.49999999999999 31.325000000000003 L 71.49999999999999 31.625000000000004 Z "
       style="stroke-width:0.1;stroke-miterlimit:4;stroke-dasharray:none;fill:none;fill-opacity:0.5;fill-rule:evenodd"
       stroke-width="0.35 px"
       stroke="#191919" />
    <path
       id="Body027_f0011"
       d="M -65.49999999999999 -37.625 A 6 6 0 0 0 -71.5 -31.625L -71.5000000000017 -31.624999999998284 A 6 6 0 0 1 -65.5 -37.625L -65.49999999999999 -37.625 Z "
       style="stroke-width:0.1;stroke-miterlimit:4;stroke-dasharray:none;fill:none;fill-opacity:0.5;fill-rule:evenodd"
       stroke-width="0.35 px"
       stroke="#191919" />
    <path
       id="Body027_f0012"
       d="M 71.49999999999999 31.325000000000003 L 71.49999999999999 31.325000000000003 L 50.50000000000001 31.325000000000003 L 50.50000000000001 31.325000000000003 L 71.49999999999999 31.325000000000003 Z "
       style="stroke-width:0.1;stroke-miterlimit:4;stroke-dasharray:none;fill:none;fill-opacity:0.5;fill-rule:evenodd"
       stroke-width="0.35 px"
       stroke="#191919" />
    <path
       id="Body027_f0013"
       d="M 65.50000000000001 -37.625 L 65.50000000000001 -37.625 L -65.49999999999999 -37.625 L -65.49999999999999 -37.625 L 65.50000000000001 -37.625 Z "
       style="stroke-width:0.1;stroke-miterlimit:4;stroke-dasharray:none;fill:none;fill-opacity:0.5;fill-rule:evenodd"
       stroke-width="0.35 px"
       stroke="#191919" />
    <path
       id="Body027_f0014"
       d="M 50.50000000000001 31.325000000000003 L 50.50000000000001 31.325000000000003 A 2 2 0 0 1 48.5 29.325L 48.50000000000003 29.325000000000003 A 2 2 0 0 0 50.5 31.325Z "
       style="stroke-width:0.1;stroke-miterlimit:4;stroke-dasharray:none;fill:none;fill-opacity:0.5;fill-rule:evenodd"
       stroke-width="0.35 px"
       stroke="#191919" />
    <path
       id="Body027_f0015"
       d="M 71.50000000000001 -31.624999999999996 A 6 6 0 0 0 65.5 -37.625L 65.50000000000001 -37.625 A 6 6 0 0 1 71.5 -31.625L 71.50000000000001 -31.624999999999993 Z "
       style="stroke-width:0.1;stroke-miterlimit:4;stroke-dasharray:none;fill:none;fill-opacity:0.5;fill-rule:evenodd"
       stroke-width="0.35 px"
       stroke="#191919" />
    <path
       id="Body027_f0016"
       d="M 48.50000000000003 29.325000000000003 L 48.50000000000003 29.325000000000003 L 48.50000000000004 -2.624999999999989 L 48.50000000000004 -2.624999999999989 L 48.50000000000004 29.325000000000003 Z "
       style="stroke-width:0.1;stroke-miterlimit:4;stroke-dasharray:none;fill:none;fill-opacity:0.5;fill-rule:evenodd"
       stroke-width="0.35 px"
       stroke="#191919" />
    <path
       id="Body027_f0017"
       d="M 71.50000000000001 -4.624999999999973 L 71.50000000000001 -4.624999999999973 L 71.50000000000001 -31.624999999999993 L 71.50000000000001 -31.624999999999993 L 71.50000000000001 -4.624999999999973 Z "
       style="stroke-width:0.1;stroke-miterlimit:4;stroke-dasharray:none;fill:none;fill-opacity:0.5;fill-rule:evenodd"
       stroke-width="0.35 px"
       stroke="#191919" />
    <path
       id="Body027_f0018"
       d="M 48.50000000000004 -2.624999999999989 L 48.50000000000004 -2.624999999999989 A 2 2 0 0 1 50.5 -4.625L 50.50000000000003 -4.624999999999973 A 2 2 0 0 0 48.5 -2.625Z "
       style="stroke-width:0.1;stroke-miterlimit:4;stroke-dasharray:none;fill:none;fill-opacity:0.5;fill-rule:evenodd"
       stroke-width="0.35 px"
       stroke="#191919" />
    <path
       id="Body027_f0019"
       d="M 50.50000000000003 -4.624999999999973 L 50.50000000000003 -4.624999999999973 L 71.50000000000001 -4.624999999999973 L 71.50000000000001 -4.624999999999973 L 50.50000000000003 -4.624999999999973 Z "
       style="stroke-width:0.1;stroke-miterlimit:4;stroke-dasharray:none;fill:none;fill-opacity:0.5;fill-rule:evenodd"
       stroke-width="0.35 px"
       stroke="#191919" />
    <circle
       cx="61.65000000000001"
       cy="33.85"
       r="1.6"
       style="stroke-width:0.1;stroke-miterlimit:4;stroke-dasharray:none;fill:none"
       id="circle24"
       stroke-width="0.35 px"
       stroke="#191919" />
    <circle
       cx="61.65000000000001"
       cy="-31.8"
       r="1.6"
       style="stroke-width:0.1;stroke-miterlimit:4;stroke-dasharray:none;fill:none"
       id="circle26"
       stroke-width="0.35 px"
       stroke="#191919" />
    <circle
       cx="-64.55"
       cy="-31.8"
       r="1.6"
       style="stroke-width:0.1;stroke-miterlimit:4;stroke-dasharray:none;fill:none"
       id="circle28"
       stroke-width="0.35 px"
       stroke="#191919" />
    <circle
       cx="-64.54999999999998"
       cy="33.85"
       r="1.6"
       style="stroke-width:0.1;stroke-miterlimit:4;stroke-dasharray:none;fill:none"
       id="circle30"
       stroke-width="0.35 px"
       stroke="#191919" />
    <title
       id="title32">b'back_cover_acr3mm'</title>
  </g>
</svg>
