<?xml version="1.0" encoding="UTF-8" standalone="no"?>
<svg
   xmlns:dc="http://purl.org/dc/elements/1.1/"
   xmlns:cc="http://creativecommons.org/ns#"
   xmlns:rdf="http://www.w3.org/1999/02/22-rdf-syntax-ns#"
   xmlns:svg="http://www.w3.org/2000/svg"
   xmlns="http://www.w3.org/2000/svg"
   xmlns:sodipodi="http://sodipodi.sourceforge.net/DTD/sodipodi-0.dtd"
   xmlns:inkscape="http://www.inkscape.org/namespaces/inkscape"
   width="144.1907mm"
   height="50.992653mm"
   viewBox="0 0 144.1907 50.992655"
   version="1.1"
   id="svg4211"
   inkscape:version="0.91 r13725"
   sodipodi:docname="front_acr_supports.svg">
  <metadata
     id="metadata4246">
    <rdf:RDF>
      <cc:Work
         rdf:about="">
        <dc:format>image/svg+xml</dc:format>
        <dc:type
           rdf:resource="http://purl.org/dc/dcmitype/StillImage" />
        <dc:title></dc:title>
      </cc:Work>
    </rdf:RDF>
  </metadata>
  <defs
     id="defs4244" />
  <sodipodi:namedview
     pagecolor="#ffffff"
     bordercolor="#666666"
     borderopacity="1"
     objecttolerance="10"
     gridtolerance="10"
     guidetolerance="10"
     inkscape:pageopacity="0"
     inkscape:pageshadow="2"
     inkscape:window-width="1366"
     inkscape:window-height="744"
     id="namedview4242"
     showgrid="false"
     inkscape:zoom="1.7369886"
     inkscape:cx="255.1681"
     inkscape:cy="67.369705"
     inkscape:window-x="0"
     inkscape:window-y="24"
     inkscape:window-maximized="1"
     inkscape:current-layer="svg4211"
     fit-margin-top="0"
     fit-margin-left="0"
     fit-margin-right="0"
     fit-margin-bottom="0" />
  <g
     id="g4274"
     style="stroke-width:0.02822222;stroke-miterlimit:4;stroke-dasharray:none"
     transform="translate(-1.2634153,24.538542)">
    <path
       id="Body001_f0000"
       d="m 140.44,2.94 0,-1.5 0,0 0,1.5 0,0 z"
       style="fill:#cccccc;fill-opacity:0.5;fill-rule:evenodd;stroke:#191919;stroke-width:0.02822222;stroke-miterlimit:4;stroke-dasharray:none"
       inkscape:connector-curvature="0" />
    <path
       id="Body001_f0002"
       d="m 140.44,2.94 a 1.5,1.5 0 0 0 1.5,1.5 l 0,0 a 1.5,1.5 0 0 1 -1.5,-1.5 l 0,0 z"
       style="fill:#cccccc;fill-opacity:0.5;fill-rule:evenodd;stroke:#191919;stroke-width:0.02822222;stroke-miterlimit:4;stroke-dasharray:none"
       inkscape:connector-curvature="0" />
    <path
       id="Body001_f0003"
       d="m 73.44,1.44 0,0 67,0 0,0 -67,0 z"
       style="fill:#cccccc;fill-opacity:0.5;fill-rule:evenodd;stroke:#191919;stroke-width:0.02822222;stroke-miterlimit:4;stroke-dasharray:none"
       inkscape:connector-curvature="0" />
    <path
       id="Body001_f0005"
       d="m 145.44,4.44 -3.5,0 0,0 3.5,0 0,0 z"
       style="fill:#cccccc;fill-opacity:0.5;fill-rule:evenodd;stroke:#191919;stroke-width:0.02822222;stroke-miterlimit:4;stroke-dasharray:none"
       inkscape:connector-curvature="0" />
    <path
       id="Body001_f0006"
       d="m 6.44,1.44 67,0 0,0 -67,0 0,0 z"
       style="fill:#cccccc;fill-opacity:0.5;fill-rule:evenodd;stroke:#191919;stroke-width:0.02822222;stroke-miterlimit:4;stroke-dasharray:none"
       inkscape:connector-curvature="0" />
    <path
       id="Body001_f0007"
       d="m 145.44,4.44 0,0 0,5.8 0,0 0,-5.8 z"
       style="fill:#cccccc;fill-opacity:0.5;fill-rule:evenodd;stroke:#191919;stroke-width:0.02822222;stroke-miterlimit:4;stroke-dasharray:none"
       inkscape:connector-curvature="0" />
    <path
       id="Body001_f0008"
       d="m 6.44,2.94 0,-1.5 0,0 0,1.5 0,0 z"
       style="fill:#cccccc;fill-opacity:0.5;fill-rule:evenodd;stroke:#191919;stroke-width:0.02822222;stroke-miterlimit:4;stroke-dasharray:none"
       inkscape:connector-curvature="0" />
    <path
       id="Body001_f0009"
       d="m 136.94,10.24 8.5,0 0,0 -8.5,0 0,0 z"
       style="fill:#cccccc;fill-opacity:0.5;fill-rule:evenodd;stroke:#191919;stroke-width:0.02822222;stroke-miterlimit:4;stroke-dasharray:none"
       inkscape:connector-curvature="0" />
    <path
       id="Body001_f0010"
       d="m 4.94,4.44 a 1.5,1.5 0 0 0 1.5,-1.5 l 0,0 a 1.5,1.5 0 0 1 -1.5,1.5 l 0,0 z"
       style="fill:#cccccc;fill-opacity:0.5;fill-rule:evenodd;stroke:#191919;stroke-width:0.02822222;stroke-miterlimit:4;stroke-dasharray:none"
       inkscape:connector-curvature="0" />
    <path
       id="Body001_f0011"
       d="m 136.94,10.24 a 1.5,1.5 0 0 0 -1.5,1.5 l 0,0 a 1.5,1.5 0 0 1 1.5,-1.5 l 0,0 z"
       style="fill:#cccccc;fill-opacity:0.5;fill-rule:evenodd;stroke:#191919;stroke-width:0.02822222;stroke-miterlimit:4;stroke-dasharray:none"
       inkscape:connector-curvature="0" />
    <path
       id="Body001_f0012"
       d="m 1.44,4.44 3.5,0 0,0 -3.5,0 0,0 z"
       style="fill:#cccccc;fill-opacity:0.5;fill-rule:evenodd;stroke:#191919;stroke-width:0.02822222;stroke-miterlimit:4;stroke-dasharray:none"
       inkscape:connector-curvature="0" />
    <path
       id="Body001_f0013"
       d="m 135.44,16.24 0,-4.5 0,0 0,4.5 0,0 z"
       style="fill:#cccccc;fill-opacity:0.5;fill-rule:evenodd;stroke:#191919;stroke-width:0.02822222;stroke-miterlimit:4;stroke-dasharray:none"
       inkscape:connector-curvature="0" />
    <path
       id="Body001_f0014"
       d="m 1.44,10.24 0,-5.8 0,0 0,5.8 0,0 z"
       style="fill:#cccccc;fill-opacity:0.5;fill-rule:evenodd;stroke:#191919;stroke-width:0.02822222;stroke-miterlimit:4;stroke-dasharray:none"
       inkscape:connector-curvature="0" />
    <path
       id="Body001_f0015"
       d="m 135.44,16.24 0,0 -27,10.2 0,0 27,-10.2 z"
       style="fill:#cccccc;fill-opacity:0.5;fill-rule:evenodd;stroke:#191919;stroke-width:0.02822222;stroke-miterlimit:4;stroke-dasharray:none"
       inkscape:connector-curvature="0" />
    <path
       id="Body001_f0016"
       d="m 9.94,10.24 -8.5,0 0,0 8.5,0 0,0 z"
       style="fill:#cccccc;fill-opacity:0.5;fill-rule:evenodd;stroke:#191919;stroke-width:0.02822222;stroke-miterlimit:4;stroke-dasharray:none"
       inkscape:connector-curvature="0" />
    <path
       id="Body001_f0017"
       d="m 108.44,26.44 0,0 -35,0 0,0 35,0 z"
       style="fill:#cccccc;fill-opacity:0.5;fill-rule:evenodd;stroke:#191919;stroke-width:0.02822222;stroke-miterlimit:4;stroke-dasharray:none"
       inkscape:connector-curvature="0" />
    <path
       id="Body001_f0018"
       d="m 11.44,11.74 a 1.5,1.5 0 0 0 -1.5,-1.5 l 0,0 a 1.5,1.5 0 0 1 1.5,1.5 l 0,0 z"
       style="fill:#cccccc;fill-opacity:0.5;fill-rule:evenodd;stroke:#191919;stroke-width:0.02822222;stroke-miterlimit:4;stroke-dasharray:none"
       inkscape:connector-curvature="0" />
    <path
       id="Body001_f0019"
       d="m 73.44,26.44 -35,0 0,0 35,0 0,0 z"
       style="fill:#cccccc;fill-opacity:0.5;fill-rule:evenodd;stroke:#191919;stroke-width:0.02822222;stroke-miterlimit:4;stroke-dasharray:none"
       inkscape:connector-curvature="0" />
    <path
       id="Body001_f0020"
       d="m 11.44,16.24 0,-4.5 0,0 0,4.5 0,0 z"
       style="fill:#cccccc;fill-opacity:0.5;fill-rule:evenodd;stroke:#191919;stroke-width:0.02822222;stroke-miterlimit:4;stroke-dasharray:none"
       inkscape:connector-curvature="0" />
    <path
       id="Body001_f0021"
       d="m 38.44,26.44 -27,-10.2 0,0 27,10.2 0,0 z"
       style="fill:#cccccc;fill-opacity:0.5;fill-rule:evenodd;stroke:#191919;stroke-width:0.02822222;stroke-miterlimit:4;stroke-dasharray:none"
       inkscape:connector-curvature="0" />
    <path
       id="Body001_f0022"
       d="m 63.44,16.94 0,3 0,0 0,-3 0,0 z"
       style="fill:#cccccc;fill-opacity:0.5;fill-rule:evenodd;stroke:#191919;stroke-width:0.02822222;stroke-miterlimit:4;stroke-dasharray:none"
       inkscape:connector-curvature="0" />
    <path
       id="Body001_f0023"
       d="m 63.44,19.94 20,0 0,0 -20,0 0,0 z"
       style="fill:#cccccc;fill-opacity:0.5;fill-rule:evenodd;stroke:#191919;stroke-width:0.02822222;stroke-miterlimit:4;stroke-dasharray:none"
       inkscape:connector-curvature="0" />
    <path
       id="Body001_f0024"
       d="m 83.44,19.94 0,-3 0,0 0,3 0,0 z"
       style="fill:#cccccc;fill-opacity:0.5;fill-rule:evenodd;stroke:#191919;stroke-width:0.02822222;stroke-miterlimit:4;stroke-dasharray:none"
       inkscape:connector-curvature="0" />
    <path
       id="Body001_f0025"
       d="m 83.44,16.94 -20,0 0,0 20,0 0,0 z"
       style="fill:#cccccc;fill-opacity:0.5;fill-rule:evenodd;stroke:#191919;stroke-width:0.02822222;stroke-miterlimit:4;stroke-dasharray:none"
       inkscape:connector-curvature="0" />
  </g>
  <g
     style="stroke-width:0.02822222;stroke-miterlimit:4;stroke-dasharray:none"
     id="g4300"
     transform="matrix(1,0,0,-1,-1.4258932,26.454111)">
    <path
       inkscape:connector-curvature="0"
       style="fill:#cccccc;fill-opacity:0.5;fill-rule:evenodd;stroke:#191919;stroke-width:0.02822222;stroke-miterlimit:4;stroke-dasharray:none"
       d="m 140.44,2.94 0,-1.5 0,0 0,1.5 0,0 z"
       id="path4302" />
    <path
       inkscape:connector-curvature="0"
       style="fill:#cccccc;fill-opacity:0.5;fill-rule:evenodd;stroke:#191919;stroke-width:0.02822222;stroke-miterlimit:4;stroke-dasharray:none"
       d="m 140.44,2.94 a 1.5,1.5 0 0 0 1.5,1.5 l 0,0 a 1.5,1.5 0 0 1 -1.5,-1.5 l 0,0 z"
       id="path4304" />
    <path
       inkscape:connector-curvature="0"
       style="fill:#cccccc;fill-opacity:0.5;fill-rule:evenodd;stroke:#191919;stroke-width:0.02822222;stroke-miterlimit:4;stroke-dasharray:none"
       d="m 73.44,1.44 0,0 67,0 0,0 -67,0 z"
       id="path4306" />
    <path
       inkscape:connector-curvature="0"
       style="fill:#cccccc;fill-opacity:0.5;fill-rule:evenodd;stroke:#191919;stroke-width:0.02822222;stroke-miterlimit:4;stroke-dasharray:none"
       d="m 145.44,4.44 -3.5,0 0,0 3.5,0 0,0 z"
       id="path4308" />
    <path
       inkscape:connector-curvature="0"
       style="fill:#cccccc;fill-opacity:0.5;fill-rule:evenodd;stroke:#191919;stroke-width:0.02822222;stroke-miterlimit:4;stroke-dasharray:none"
       d="m 6.44,1.44 67,0 0,0 -67,0 0,0 z"
       id="path4310" />
    <path
       inkscape:connector-curvature="0"
       style="fill:#cccccc;fill-opacity:0.5;fill-rule:evenodd;stroke:#191919;stroke-width:0.02822222;stroke-miterlimit:4;stroke-dasharray:none"
       d="m 145.44,4.44 0,0 0,5.8 0,0 0,-5.8 z"
       id="path4312" />
    <path
       inkscape:connector-curvature="0"
       style="fill:#cccccc;fill-opacity:0.5;fill-rule:evenodd;stroke:#191919;stroke-width:0.02822222;stroke-miterlimit:4;stroke-dasharray:none"
       d="m 6.44,2.94 0,-1.5 0,0 0,1.5 0,0 z"
       id="path4314" />
    <path
       inkscape:connector-curvature="0"
       style="fill:#cccccc;fill-opacity:0.5;fill-rule:evenodd;stroke:#191919;stroke-width:0.02822222;stroke-miterlimit:4;stroke-dasharray:none"
       d="m 136.94,10.24 8.5,0 0,0 -8.5,0 0,0 z"
       id="path4316" />
    <path
       inkscape:connector-curvature="0"
       style="fill:#cccccc;fill-opacity:0.5;fill-rule:evenodd;stroke:#191919;stroke-width:0.02822222;stroke-miterlimit:4;stroke-dasharray:none"
       d="m 4.94,4.44 a 1.5,1.5 0 0 0 1.5,-1.5 l 0,0 a 1.5,1.5 0 0 1 -1.5,1.5 l 0,0 z"
       id="path4318" />
    <path
       inkscape:connector-curvature="0"
       style="fill:#cccccc;fill-opacity:0.5;fill-rule:evenodd;stroke:#191919;stroke-width:0.02822222;stroke-miterlimit:4;stroke-dasharray:none"
       d="m 136.94,10.24 a 1.5,1.5 0 0 0 -1.5,1.5 l 0,0 a 1.5,1.5 0 0 1 1.5,-1.5 l 0,0 z"
       id="path4320" />
    <path
       inkscape:connector-curvature="0"
       style="fill:#cccccc;fill-opacity:0.5;fill-rule:evenodd;stroke:#191919;stroke-width:0.02822222;stroke-miterlimit:4;stroke-dasharray:none"
       d="m 1.44,4.44 3.5,0 0,0 -3.5,0 0,0 z"
       id="path4322" />
    <path
       inkscape:connector-curvature="0"
       style="fill:#cccccc;fill-opacity:0.5;fill-rule:evenodd;stroke:#191919;stroke-width:0.02822222;stroke-miterlimit:4;stroke-dasharray:none"
       d="m 135.44,16.24 0,-4.5 0,0 0,4.5 0,0 z"
       id="path4324" />
    <path
       inkscape:connector-curvature="0"
       style="fill:#cccccc;fill-opacity:0.5;fill-rule:evenodd;stroke:#191919;stroke-width:0.02822222;stroke-miterlimit:4;stroke-dasharray:none"
       d="m 1.44,10.24 0,-5.8 0,0 0,5.8 0,0 z"
       id="path4326" />
    <path
       inkscape:connector-curvature="0"
       style="fill:#cccccc;fill-opacity:0.5;fill-rule:evenodd;stroke:#191919;stroke-width:0.02822222;stroke-miterlimit:4;stroke-dasharray:none"
       d="m 135.44,16.24 0,0 -27,10.2 0,0 27,-10.2 z"
       id="path4328" />
    <path
       inkscape:connector-curvature="0"
       style="fill:#cccccc;fill-opacity:0.5;fill-rule:evenodd;stroke:#191919;stroke-width:0.02822222;stroke-miterlimit:4;stroke-dasharray:none"
       d="m 9.94,10.24 -8.5,0 0,0 8.5,0 0,0 z"
       id="path4330" />
    <path
       inkscape:connector-curvature="0"
       style="fill:#cccccc;fill-opacity:0.5;fill-rule:evenodd;stroke:#191919;stroke-width:0.02822222;stroke-miterlimit:4;stroke-dasharray:none"
       d="m 108.44,26.44 0,0 -35,0 0,0 35,0 z"
       id="path4332" />
    <path
       inkscape:connector-curvature="0"
       style="fill:#cccccc;fill-opacity:0.5;fill-rule:evenodd;stroke:#191919;stroke-width:0.02822222;stroke-miterlimit:4;stroke-dasharray:none"
       d="m 11.44,11.74 a 1.5,1.5 0 0 0 -1.5,-1.5 l 0,0 a 1.5,1.5 0 0 1 1.5,1.5 l 0,0 z"
       id="path4334" />
    <path
       inkscape:connector-curvature="0"
       style="fill:#cccccc;fill-opacity:0.5;fill-rule:evenodd;stroke:#191919;stroke-width:0.02822222;stroke-miterlimit:4;stroke-dasharray:none"
       d="m 73.44,26.44 -35,0 0,0 35,0 0,0 z"
       id="path4336" />
    <path
       inkscape:connector-curvature="0"
       style="fill:#cccccc;fill-opacity:0.5;fill-rule:evenodd;stroke:#191919;stroke-width:0.02822222;stroke-miterlimit:4;stroke-dasharray:none"
       d="m 11.44,16.24 0,-4.5 0,0 0,4.5 0,0 z"
       id="path4338" />
    <path
       inkscape:connector-curvature="0"
       style="fill:#cccccc;fill-opacity:0.5;fill-rule:evenodd;stroke:#191919;stroke-width:0.02822222;stroke-miterlimit:4;stroke-dasharray:none"
       d="m 38.44,26.44 -27,-10.2 0,0 27,10.2 0,0 z"
       id="path4340" />
    <path
       inkscape:connector-curvature="0"
       style="fill:#cccccc;fill-opacity:0.5;fill-rule:evenodd;stroke:#191919;stroke-width:0.02822222;stroke-miterlimit:4;stroke-dasharray:none"
       d="m 63.44,16.94 0,3 0,0 0,-3 0,0 z"
       id="path4342" />
    <path
       inkscape:connector-curvature="0"
       style="fill:#cccccc;fill-opacity:0.5;fill-rule:evenodd;stroke:#191919;stroke-width:0.02822222;stroke-miterlimit:4;stroke-dasharray:none"
       d="m 63.44,19.94 20,0 0,0 -20,0 0,0 z"
       id="path4344" />
    <path
       inkscape:connector-curvature="0"
       style="fill:#cccccc;fill-opacity:0.5;fill-rule:evenodd;stroke:#191919;stroke-width:0.02822222;stroke-miterlimit:4;stroke-dasharray:none"
       d="m 83.44,19.94 0,-3 0,0 0,3 0,0 z"
       id="path4346" />
    <path
       inkscape:connector-curvature="0"
       style="fill:#cccccc;fill-opacity:0.5;fill-rule:evenodd;stroke:#191919;stroke-width:0.02822222;stroke-miterlimit:4;stroke-dasharray:none"
       d="m 83.44,16.94 -20,0 0,0 20,0 0,0 z"
       id="path4348" />
  </g>
</svg>
