  0
SECTION
  2
HEADER
  9
$ACADVER
  1
AC1014
  9
$HANDSEED
  5
FFFF
  9
$MEASUREMENT
 70
     1
  0
ENDSEC
  0
SECTION
  2
TABLES
  0
TABLE
  2
VPORT
  5
8
330
0
100
AcDbSymbolTable
 70
     4
  0
VPORT
  5
2E
330
8
100
AcDbSymbolTableRecord
100
AcDbViewportTableRecord
  2
*ACTIVE
 70
     0
 10
0.0
 20
0.0
 11
1.0
 21
1.0
 12
210.0
 22
148.5
 13
0.0
 23
0.0
 14
10.0
 24
10.0
 15
10.0
 25
10.0
 16
0.0
 26
0.0
 36
1.0
 17
0.0
 27
0.0
 37
0.0
 40
341.0
 41
1.24
 42
50.0
 43
0.0
 44
0.0
 50
0.0
 51
0.0
 71
     0
 72
   100
 73
     1
 74
     3
 75
     0
 76
     0
 77
     0
 78
     0
  0
ENDTAB
  0
TABLE
  2
LTYPE
  5
5
330
0
100
AcDbSymbolTable
 70
     1
  0
LTYPE
  5
14
330
5
100
AcDbSymbolTableRecord
100
AcDbLinetypeTableRecord
  2
BYBLOCK
 70
     0
  3

 72
    65
 73
     0
 40
0.0
  0
LTYPE
  5
15
330
5
100
AcDbSymbolTableRecord
100
AcDbLinetypeTableRecord
  2
BYLAYER
 70
     0
  3

 72
    65
 73
     0
 40
0.0
  0
LTYPE
  5
16
330
5
100
AcDbSymbolTableRecord
100
AcDbLinetypeTableRecord
  2
CONTINUOUS
 70
     0
  3
Solid line
 72
    65
 73
     0
 40
0.0
  0
ENDTAB
  0
TABLE
  2
LAYER
  5
2
100
AcDbSymbolTable
 70
2
  0
LAYER
  5
50
100
AcDbSymbolTableRecord
100
AcDbLayerTableRecord
  2
0
 70
0
  6
CONTINUOUS
  0
LAYER
  5
51
100
AcDbSymbolTableRecord
100
AcDbLayerTableRecord
  2
Layer_1
 70
0
  6
CONTINUOUS
  0
ENDTAB
  0
TABLE
  2
STYLE
  5
3
330
0
100
AcDbSymbolTable
 70
     1
  0
STYLE
  5
11
330
3
100
AcDbSymbolTableRecord
100
AcDbTextStyleTableRecord
  2
STANDARD
 70
     0
 40
0.0
 41
1.0
 50
0.0
 71
     0
 42
2.5
  3
txt
  4

  0
ENDTAB
  0
TABLE
  2
VIEW
  5
6
330
0
100
AcDbSymbolTable
 70
     0
  0
ENDTAB
  0
TABLE
  2
UCS
  5
7
330
0
100
AcDbSymbolTable
 70
     0
  0
ENDTAB
  0
TABLE
  2
APPID
  5
9
330
0
100
AcDbSymbolTable
 70
     2
  0
APPID
  5
12
330
9
100
AcDbSymbolTableRecord
100
AcDbRegAppTableRecord
  2
ACAD
 70
     0
  0
ENDTAB
  0
TABLE
  2
DIMSTYLE
  5
A
330
0
100
AcDbSymbolTable
 70
     1
  0
DIMSTYLE
105
27
330
A
100
AcDbSymbolTableRecord
100
AcDbDimStyleTableRecord
  2
ISO-25
 70
     0
  3

  4

  5

  6

  7

 40
1.0
 41
2.5
 42
0.625
 43
3.75
 44
1.25
 45
0.0
 46
0.0
 47
0.0
 48
0.0
140
2.5
141
2.5
142
0.0
143
0.03937007874016
144
1.0
145
0.0
146
1.0
147
0.625
 71
     0
 72
     0
 73
     0
 74
     0
 75
     0
 76
     0
 77
     1
 78
     8
170
     0
171
     3
172
     1
173
     0
174
     0
175
     0
176
     0
177
     0
178
     0
270
     2
271
     2
272
     2
273
     2
274
     3
340
11
275
     0
280
     0
281
     0
282
     0
283
     0
284
     8
285
     0
286
     0
287
     3
288
     0
  0
ENDTAB
  0
TABLE
  2
BLOCK_RECORD
  5
1
330
0
100
AcDbSymbolTable
 70
     1
  0
BLOCK_RECORD
  5
1F
330
1
100
AcDbSymbolTableRecord
100
AcDbBlockTableRecord
  2
*MODEL_SPACE
  0
BLOCK_RECORD
  5
1B
330
1
100
AcDbSymbolTableRecord
100
AcDbBlockTableRecord
  2
*PAPER_SPACE
  0
ENDTAB
  0
ENDSEC
  0
SECTION
  2
BLOCKS
  0
BLOCK
  5
20
330
1F
100
AcDbEntity
  8
0
100
AcDbBlockBegin
  2
*MODEL_SPACE
 70
     0
 10
0.0
 20
0.0
 30
0.0
  3
*MODEL_SPACE
  1

  0
ENDBLK
  5
21
330
1F
100
AcDbEntity
  8
0
100
AcDbBlockEnd
  0
BLOCK
  5
1C
330
1B
100
AcDbEntity
 67
     1
  8
0
100
AcDbBlockBegin
  2
*PAPER_SPACE
  1

  0
ENDBLK
  5
1D
330
1B
100
AcDbEntity
 67
     1
  8
0
100
AcDbBlockEnd
  0
ENDSEC
  0
SECTION
  2
ENTITIES
  0
LINE
  5
100
100
AcDbEntity
  8
Layer_1
 62
1
100
AcDbLine
 10
63.367449
 20
22.663719
 30
0.0
 11
79.262938
 21
22.663719
 31
0.0
  0
LINE
  5
101
100
AcDbEntity
  8
Layer_1
 62
1
100
AcDbLine
 10
79.262938
 20
22.663719
 30
0.0
 11
79.970686
 21
22.371469
 31
0.0
  0
LINE
  5
102
100
AcDbEntity
  8
Layer_1
 62
1
100
AcDbLine
 10
79.970686
 20
22.371469
 30
0.0
 11
80.262939
 21
21.663718
 31
0.0
  0
LINE
  5
103
100
AcDbEntity
  8
Layer_1
 62
1
100
AcDbLine
 10
80.262939
 20
21.663718
 30
0.0
 11
80.262939
 21
21.415701
 31
0.0
  0
LINE
  5
104
100
AcDbEntity
  8
Layer_1
 62
1
100
AcDbLine
 10
80.262939
 20
21.415701
 30
0.0
 11
79.970686
 21
20.707950
 31
0.0
  0
LINE
  5
105
100
AcDbEntity
  8
Layer_1
 62
1
100
AcDbLine
 10
79.970686
 20
20.707950
 30
0.0
 11
79.262938
 21
20.415700
 31
0.0
  0
LINE
  5
106
100
AcDbEntity
  8
Layer_1
 62
1
100
AcDbLine
 10
79.262938
 20
20.415700
 30
0.0
 11
63.367449
 21
20.415700
 31
0.0
  0
LINE
  5
107
100
AcDbEntity
  8
Layer_1
 62
1
100
AcDbLine
 10
63.367449
 20
20.415700
 30
0.0
 11
62.659697
 21
20.707950
 31
0.0
  0
LINE
  5
108
100
AcDbEntity
  8
Layer_1
 62
1
100
AcDbLine
 10
62.659697
 20
20.707950
 30
0.0
 11
62.367448
 21
21.415701
 31
0.0
  0
LINE
  5
109
100
AcDbEntity
  8
Layer_1
 62
1
100
AcDbLine
 10
62.367448
 20
21.415701
 30
0.0
 11
62.367448
 21
21.663718
 31
0.0
  0
LINE
  5
10a
100
AcDbEntity
  8
Layer_1
 62
1
100
AcDbLine
 10
62.367448
 20
21.663718
 30
0.0
 11
62.659697
 21
22.371469
 31
0.0
  0
LINE
  5
10b
100
AcDbEntity
  8
Layer_1
 62
1
100
AcDbLine
 10
62.659697
 20
22.371469
 30
0.0
 11
63.367449
 21
22.663719
 31
0.0
  0
LINE
  5
10c
100
AcDbEntity
  8
Layer_1
 62
1
100
AcDbLine
 10
63.367449
 20
22.663719
 30
0.0
 11
63.367449
 21
22.663719
 31
0.0
  0
LINE
  5
10d
100
AcDbEntity
  8
Layer_1
 62
1
100
AcDbLine
 10
82.924749
 20
50.644692
 30
0.0
 11
82.629056
 21
49.930830
 31
0.0
  0
LINE
  5
10e
100
AcDbEntity
  8
Layer_1
 62
1
100
AcDbLine
 10
82.629056
 20
49.930830
 30
0.0
 11
81.915198
 21
49.635140
 31
0.0
  0
LINE
  5
10f
100
AcDbEntity
  8
Layer_1
 62
1
100
AcDbLine
 10
81.915198
 20
49.635140
 30
0.0
 11
81.201336
 21
49.930830
 31
0.0
  0
LINE
  5
110
100
AcDbEntity
  8
Layer_1
 62
1
100
AcDbLine
 10
81.201336
 20
49.930830
 30
0.0
 11
80.905646
 21
50.644692
 31
0.0
  0
LINE
  5
111
100
AcDbEntity
  8
Layer_1
 62
1
100
AcDbLine
 10
80.905646
 20
50.644692
 30
0.0
 11
81.201336
 21
51.358550
 31
0.0
  0
LINE
  5
112
100
AcDbEntity
  8
Layer_1
 62
1
100
AcDbLine
 10
81.201336
 20
51.358550
 30
0.0
 11
81.915198
 21
51.654240
 31
0.0
  0
LINE
  5
113
100
AcDbEntity
  8
Layer_1
 62
1
100
AcDbLine
 10
81.915198
 20
51.654240
 30
0.0
 11
82.629056
 21
51.358550
 31
0.0
  0
LINE
  5
114
100
AcDbEntity
  8
Layer_1
 62
1
100
AcDbLine
 10
82.629056
 20
51.358550
 30
0.0
 11
82.924749
 21
50.644692
 31
0.0
  0
LINE
  5
115
100
AcDbEntity
  8
Layer_1
 62
1
100
AcDbLine
 10
82.924749
 20
50.644692
 30
0.0
 11
82.924749
 21
50.644692
 31
0.0
  0
LINE
  5
116
100
AcDbEntity
  8
Layer_1
 62
1
100
AcDbLine
 10
61.924748
 20
50.644692
 30
0.0
 11
61.629056
 21
49.930830
 31
0.0
  0
LINE
  5
117
100
AcDbEntity
  8
Layer_1
 62
1
100
AcDbLine
 10
61.629056
 20
49.930830
 30
0.0
 11
60.915197
 21
49.635140
 31
0.0
  0
LINE
  5
118
100
AcDbEntity
  8
Layer_1
 62
1
100
AcDbLine
 10
60.915197
 20
49.635140
 30
0.0
 11
60.201336
 21
49.930830
 31
0.0
  0
LINE
  5
119
100
AcDbEntity
  8
Layer_1
 62
1
100
AcDbLine
 10
60.201336
 20
49.930830
 30
0.0
 11
59.905649
 21
50.644692
 31
0.0
  0
LINE
  5
11a
100
AcDbEntity
  8
Layer_1
 62
1
100
AcDbLine
 10
59.905649
 20
50.644692
 30
0.0
 11
60.201339
 21
51.358547
 31
0.0
  0
LINE
  5
11b
100
AcDbEntity
  8
Layer_1
 62
1
100
AcDbLine
 10
60.201339
 20
51.358547
 30
0.0
 11
60.915197
 21
51.654240
 31
0.0
  0
LINE
  5
11c
100
AcDbEntity
  8
Layer_1
 62
1
100
AcDbLine
 10
60.915197
 20
51.654240
 30
0.0
 11
61.629056
 21
51.358550
 31
0.0
  0
LINE
  5
11d
100
AcDbEntity
  8
Layer_1
 62
1
100
AcDbLine
 10
61.629056
 20
51.358550
 30
0.0
 11
61.924748
 21
50.644692
 31
0.0
  0
LINE
  5
11e
100
AcDbEntity
  8
Layer_1
 62
1
100
AcDbLine
 10
61.924748
 20
50.644692
 30
0.0
 11
61.924748
 21
50.644692
 31
0.0
  0
LINE
  5
11f
100
AcDbEntity
  8
Layer_1
 62
1
100
AcDbLine
 10
82.924749
 20
38.144691
 30
0.0
 11
82.629056
 21
37.430830
 31
0.0
  0
LINE
  5
120
100
AcDbEntity
  8
Layer_1
 62
1
100
AcDbLine
 10
82.629056
 20
37.430830
 30
0.0
 11
81.915198
 21
37.135140
 31
0.0
  0
LINE
  5
121
100
AcDbEntity
  8
Layer_1
 62
1
100
AcDbLine
 10
81.915198
 20
37.135140
 30
0.0
 11
81.201336
 21
37.430830
 31
0.0
  0
LINE
  5
122
100
AcDbEntity
  8
Layer_1
 62
1
100
AcDbLine
 10
81.201336
 20
37.430830
 30
0.0
 11
80.905646
 21
38.144691
 31
0.0
  0
LINE
  5
123
100
AcDbEntity
  8
Layer_1
 62
1
100
AcDbLine
 10
80.905646
 20
38.144691
 30
0.0
 11
81.201336
 21
38.858550
 31
0.0
  0
LINE
  5
124
100
AcDbEntity
  8
Layer_1
 62
1
100
AcDbLine
 10
81.201336
 20
38.858550
 30
0.0
 11
81.915198
 21
39.154240
 31
0.0
  0
LINE
  5
125
100
AcDbEntity
  8
Layer_1
 62
1
100
AcDbLine
 10
81.915198
 20
39.154240
 30
0.0
 11
82.629056
 21
38.858550
 31
0.0
  0
LINE
  5
126
100
AcDbEntity
  8
Layer_1
 62
1
100
AcDbLine
 10
82.629056
 20
38.858550
 30
0.0
 11
82.924749
 21
38.144691
 31
0.0
  0
LINE
  5
127
100
AcDbEntity
  8
Layer_1
 62
1
100
AcDbLine
 10
82.924749
 20
38.144691
 30
0.0
 11
82.924749
 21
38.144691
 31
0.0
  0
LINE
  5
128
100
AcDbEntity
  8
Layer_1
 62
1
100
AcDbLine
 10
61.924748
 20
38.144691
 30
0.0
 11
61.629056
 21
37.430830
 31
0.0
  0
LINE
  5
129
100
AcDbEntity
  8
Layer_1
 62
1
100
AcDbLine
 10
61.629056
 20
37.430830
 30
0.0
 11
60.915197
 21
37.135140
 31
0.0
  0
LINE
  5
12a
100
AcDbEntity
  8
Layer_1
 62
1
100
AcDbLine
 10
60.915197
 20
37.135140
 30
0.0
 11
60.201336
 21
37.430833
 31
0.0
  0
LINE
  5
12b
100
AcDbEntity
  8
Layer_1
 62
1
100
AcDbLine
 10
60.201336
 20
37.430833
 30
0.0
 11
59.905649
 21
38.144691
 31
0.0
  0
LINE
  5
12c
100
AcDbEntity
  8
Layer_1
 62
1
100
AcDbLine
 10
59.905649
 20
38.144691
 30
0.0
 11
60.201339
 21
38.858550
 31
0.0
  0
LINE
  5
12d
100
AcDbEntity
  8
Layer_1
 62
1
100
AcDbLine
 10
60.201339
 20
38.858550
 30
0.0
 11
60.915197
 21
39.154240
 31
0.0
  0
LINE
  5
12e
100
AcDbEntity
  8
Layer_1
 62
1
100
AcDbLine
 10
60.915197
 20
39.154240
 30
0.0
 11
61.629056
 21
38.858550
 31
0.0
  0
LINE
  5
12f
100
AcDbEntity
  8
Layer_1
 62
1
100
AcDbLine
 10
61.629056
 20
38.858550
 30
0.0
 11
61.924748
 21
38.144691
 31
0.0
  0
LINE
  5
130
100
AcDbEntity
  8
Layer_1
 62
1
100
AcDbLine
 10
61.924748
 20
38.144691
 30
0.0
 11
61.924748
 21
38.144691
 31
0.0
  0
LINE
  5
131
100
AcDbEntity
  8
Layer_1
 62
1
100
AcDbLine
 10
59.859565
 20
52.600057
 30
0.0
 11
59.151861
 21
52.307855
 31
0.0
  0
LINE
  5
132
100
AcDbEntity
  8
Layer_1
 62
1
100
AcDbLine
 10
59.151861
 20
52.307855
 30
0.0
 11
58.859660
 21
51.600152
 31
0.0
  0
LINE
  5
133
100
AcDbEntity
  8
Layer_1
 62
1
100
AcDbLine
 10
58.859660
 20
51.600152
 30
0.0
 11
58.859660
 21
29.689344
 31
0.0
  0
LINE
  5
134
100
AcDbEntity
  8
Layer_1
 62
1
100
AcDbLine
 10
58.859660
 20
29.689344
 30
0.0
 11
58.859660
 21
29.688780
 31
0.0
  0
LINE
  5
135
100
AcDbEntity
  8
Layer_1
 62
1
100
AcDbLine
 10
58.859660
 20
29.688780
 30
0.0
 11
58.800681
 21
29.689344
 31
0.0
  0
LINE
  5
136
100
AcDbEntity
  8
Layer_1
 62
1
100
AcDbLine
 10
58.800681
 20
29.689344
 30
0.0
 11
51.741818
 21
17.681672
 31
0.0
  0
LINE
  5
137
100
AcDbEntity
  8
Layer_1
 62
1
100
AcDbLine
 10
51.741818
 20
17.681672
 30
0.0
 11
11.147017
 21
17.681672
 31
0.0
  0
LINE
  5
138
100
AcDbEntity
  8
Layer_1
 62
1
100
AcDbLine
 10
11.147017
 20
17.681672
 30
0.0
 11
10.210503
 21
17.834910
 31
0.0
  0
LINE
  5
139
100
AcDbEntity
  8
Layer_1
 62
1
100
AcDbLine
 10
10.210503
 20
17.834910
 30
0.0
 11
9.082469
 21
17.614565
 31
0.0
  0
LINE
  5
13a
100
AcDbEntity
  8
Layer_1
 62
1
100
AcDbLine
 10
9.082469
 20
17.614565
 30
0.0
 11
8.088874
 21
16.953516
 31
0.0
  0
LINE
  5
13b
100
AcDbEntity
  8
Layer_1
 62
1
100
AcDbLine
 10
8.088874
 20
16.953516
 30
0.0
 11
0.934651
 21
9.799293
 31
0.0
  0
LINE
  5
13c
100
AcDbEntity
  8
Layer_1
 62
1
100
AcDbLine
 10
0.934651
 20
9.799293
 30
0.0
 11
0.273595
 21
8.805843
 31
0.0
  0
LINE
  5
13d
100
AcDbEntity
  8
Layer_1
 62
1
100
AcDbLine
 10
0.273595
 20
8.805843
 30
0.0
 11
0.053243
 21
7.677942
 31
0.0
  0
LINE
  5
13e
100
AcDbEntity
  8
Layer_1
 62
1
100
AcDbLine
 10
0.053243
 20
7.677942
 30
0.0
 11
0.273595
 21
6.550040
 31
0.0
  0
LINE
  5
13f
100
AcDbEntity
  8
Layer_1
 62
1
100
AcDbLine
 10
0.273595
 20
6.550040
 30
0.0
 11
0.934651
 21
5.556590
 31
0.0
  0
LINE
  5
140
100
AcDbEntity
  8
Layer_1
 62
1
100
AcDbLine
 10
0.934651
 20
5.556590
 30
0.0
 11
5.556591
 21
0.934665
 31
0.0
  0
LINE
  5
141
100
AcDbEntity
  8
Layer_1
 62
1
100
AcDbLine
 10
5.556591
 20
0.934665
 30
0.0
 11
6.549956
 21
0.273588
 31
0.0
  0
LINE
  5
142
100
AcDbEntity
  8
Layer_1
 62
1
100
AcDbLine
 10
6.549956
 20
0.273588
 30
0.0
 11
7.677668
 21
0.053257
 31
0.0
  0
LINE
  5
143
100
AcDbEntity
  8
Layer_1
 62
1
100
AcDbLine
 10
7.677668
 20
0.053257
 30
0.0
 11
8.805379
 21
0.273588
 31
0.0
  0
LINE
  5
144
100
AcDbEntity
  8
Layer_1
 62
1
100
AcDbLine
 10
8.805379
 20
0.273588
 30
0.0
 11
9.798743
 21
0.934665
 31
0.0
  0
LINE
  5
145
100
AcDbEntity
  8
Layer_1
 62
1
100
AcDbLine
 10
9.798743
 20
0.934665
 30
0.0
 11
16.953520
 21
8.088885
 31
0.0
  0
LINE
  5
146
100
AcDbEntity
  8
Layer_1
 62
1
100
AcDbLine
 10
16.953520
 20
8.088885
 30
0.0
 11
17.660764
 21
9.204848
 31
0.0
  0
LINE
  5
147
100
AcDbEntity
  8
Layer_1
 62
1
100
AcDbLine
 10
17.660764
 20
9.204848
 30
0.0
 11
17.822784
 21
10.468470
 31
0.0
  0
LINE
  5
148
100
AcDbEntity
  8
Layer_1
 62
1
100
AcDbLine
 10
17.822784
 20
10.468470
 30
0.0
 11
124.807607
 21
10.468470
 31
0.0
  0
LINE
  5
149
100
AcDbEntity
  8
Layer_1
 62
1
100
AcDbLine
 10
124.807607
 20
10.468470
 30
0.0
 11
124.969628
 21
9.204848
 31
0.0
  0
LINE
  5
14a
100
AcDbEntity
  8
Layer_1
 62
1
100
AcDbLine
 10
124.969628
 20
9.204848
 30
0.0
 11
125.676874
 21
8.088885
 31
0.0
  0
LINE
  5
14b
100
AcDbEntity
  8
Layer_1
 62
1
100
AcDbLine
 10
125.676874
 20
8.088885
 30
0.0
 11
132.831098
 21
0.934665
 31
0.0
  0
LINE
  5
14c
100
AcDbEntity
  8
Layer_1
 62
1
100
AcDbLine
 10
132.831098
 20
0.934665
 30
0.0
 11
133.824548
 21
0.273588
 31
0.0
  0
LINE
  5
14d
100
AcDbEntity
  8
Layer_1
 62
1
100
AcDbLine
 10
133.824548
 20
0.273588
 30
0.0
 11
134.952449
 21
0.053257
 31
0.0
  0
LINE
  5
14e
100
AcDbEntity
  8
Layer_1
 62
1
100
AcDbLine
 10
134.952449
 20
0.053257
 30
0.0
 11
136.080350
 21
0.273588
 31
0.0
  0
LINE
  5
14f
100
AcDbEntity
  8
Layer_1
 62
1
100
AcDbLine
 10
136.080350
 20
0.273588
 30
0.0
 11
137.073801
 21
0.934665
 31
0.0
  0
LINE
  5
150
100
AcDbEntity
  8
Layer_1
 62
1
100
AcDbLine
 10
137.073801
 20
0.934665
 30
0.0
 11
141.695743
 21
5.556590
 31
0.0
  0
LINE
  5
151
100
AcDbEntity
  8
Layer_1
 62
1
100
AcDbLine
 10
141.695743
 20
5.556590
 30
0.0
 11
142.356798
 21
6.550040
 31
0.0
  0
LINE
  5
152
100
AcDbEntity
  8
Layer_1
 62
1
100
AcDbLine
 10
142.356798
 20
6.550040
 30
0.0
 11
142.577148
 21
7.677942
 31
0.0
  0
LINE
  5
153
100
AcDbEntity
  8
Layer_1
 62
1
100
AcDbLine
 10
142.577148
 20
7.677942
 30
0.0
 11
142.356798
 21
8.805843
 31
0.0
  0
LINE
  5
154
100
AcDbEntity
  8
Layer_1
 62
1
100
AcDbLine
 10
142.356798
 20
8.805843
 30
0.0
 11
141.695743
 21
9.799293
 31
0.0
  0
LINE
  5
155
100
AcDbEntity
  8
Layer_1
 62
1
100
AcDbLine
 10
141.695743
 20
9.799293
 30
0.0
 11
134.541520
 21
16.953516
 31
0.0
  0
LINE
  5
156
100
AcDbEntity
  8
Layer_1
 62
1
100
AcDbLine
 10
134.541520
 20
16.953516
 30
0.0
 11
133.398850
 21
17.666791
 31
0.0
  0
LINE
  5
157
100
AcDbEntity
  8
Layer_1
 62
1
100
AcDbLine
 10
133.398850
 20
17.666791
 30
0.0
 11
133.398850
 21
17.681664
 31
0.0
  0
LINE
  5
158
100
AcDbEntity
  8
Layer_1
 62
1
100
AcDbLine
 10
133.398850
 20
17.681664
 30
0.0
 11
133.356406
 21
17.681664
 31
0.0
  0
LINE
  5
159
100
AcDbEntity
  8
Layer_1
 62
1
100
AcDbLine
 10
133.356406
 20
17.681664
 30
0.0
 11
131.483377
 21
17.681664
 31
0.0
  0
LINE
  5
15a
100
AcDbEntity
  8
Layer_1
 62
1
100
AcDbLine
 10
131.483377
 20
17.681664
 30
0.0
 11
90.492253
 21
17.681664
 31
0.0
  0
LINE
  5
15b
100
AcDbEntity
  8
Layer_1
 62
1
100
AcDbLine
 10
90.492253
 20
17.681664
 30
0.0
 11
83.678680
 21
29.273171
 31
0.0
  0
LINE
  5
15c
100
AcDbEntity
  8
Layer_1
 62
1
100
AcDbLine
 10
83.678680
 20
29.273171
 30
0.0
 11
83.770732
 21
29.689336
 31
0.0
  0
LINE
  5
15d
100
AcDbEntity
  8
Layer_1
 62
1
100
AcDbLine
 10
83.770732
 20
29.689336
 30
0.0
 11
83.770732
 21
51.600144
 31
0.0
  0
LINE
  5
15e
100
AcDbEntity
  8
Layer_1
 62
1
100
AcDbLine
 10
83.770732
 20
51.600144
 30
0.0
 11
83.478528
 21
52.307847
 31
0.0
  0
LINE
  5
15f
100
AcDbEntity
  8
Layer_1
 62
1
100
AcDbLine
 10
83.478528
 20
52.307847
 30
0.0
 11
82.770828
 21
52.600049
 31
0.0
  0
LINE
  5
160
100
AcDbEntity
  8
Layer_1
 62
1
100
AcDbLine
 10
82.770828
 20
52.600049
 30
0.0
 11
59.859565
 21
52.600049
 31
0.0
  0
LINE
  5
161
100
AcDbEntity
  8
Layer_1
 62
1
100
AcDbLine
 10
59.859565
 20
52.600049
 30
0.0
 11
59.859565
 21
52.600057
 31
0.0
  0
LINE
  5
162
100
AcDbEntity
  8
Layer_1
 62
1
100
AcDbLine
 10
135.977737
 20
8.799408
 30
0.0
 11
135.520086
 21
7.694536
 31
0.0
  0
LINE
  5
163
100
AcDbEntity
  8
Layer_1
 62
1
100
AcDbLine
 10
135.520086
 20
7.694536
 30
0.0
 11
134.415225
 21
7.236885
 31
0.0
  0
LINE
  5
164
100
AcDbEntity
  8
Layer_1
 62
1
100
AcDbLine
 10
134.415225
 20
7.236885
 30
0.0
 11
133.310362
 21
7.694536
 31
0.0
  0
LINE
  5
165
100
AcDbEntity
  8
Layer_1
 62
1
100
AcDbLine
 10
133.310362
 20
7.694536
 30
0.0
 11
132.852713
 21
8.799408
 31
0.0
  0
LINE
  5
166
100
AcDbEntity
  8
Layer_1
 62
1
100
AcDbLine
 10
132.852713
 20
8.799408
 30
0.0
 11
133.310362
 21
9.904252
 31
0.0
  0
LINE
  5
167
100
AcDbEntity
  8
Layer_1
 62
1
100
AcDbLine
 10
133.310362
 20
9.904252
 30
0.0
 11
134.415225
 21
10.361903
 31
0.0
  0
LINE
  5
168
100
AcDbEntity
  8
Layer_1
 62
1
100
AcDbLine
 10
134.415225
 20
10.361903
 30
0.0
 11
135.520086
 21
9.904252
 31
0.0
  0
LINE
  5
169
100
AcDbEntity
  8
Layer_1
 62
1
100
AcDbLine
 10
135.520086
 20
9.904252
 30
0.0
 11
135.977737
 21
8.799408
 31
0.0
  0
LINE
  5
16a
100
AcDbEntity
  8
Layer_1
 62
1
100
AcDbLine
 10
135.977737
 20
8.799408
 30
0.0
 11
135.977737
 21
8.799408
 31
0.0
  0
LINE
  5
16b
100
AcDbEntity
  8
Layer_1
 62
1
100
AcDbLine
 10
9.777678
 20
8.799408
 30
0.0
 11
9.320029
 21
7.694536
 31
0.0
  0
LINE
  5
16c
100
AcDbEntity
  8
Layer_1
 62
1
100
AcDbLine
 10
9.320029
 20
7.694536
 30
0.0
 11
8.215166
 21
7.236885
 31
0.0
  0
LINE
  5
16d
100
AcDbEntity
  8
Layer_1
 62
1
100
AcDbLine
 10
8.215166
 20
7.236885
 30
0.0
 11
7.110303
 21
7.694536
 31
0.0
  0
LINE
  5
16e
100
AcDbEntity
  8
Layer_1
 62
1
100
AcDbLine
 10
7.110303
 20
7.694536
 30
0.0
 11
6.652654
 21
8.799408
 31
0.0
  0
LINE
  5
16f
100
AcDbEntity
  8
Layer_1
 62
1
100
AcDbLine
 10
6.652654
 20
8.799408
 30
0.0
 11
7.110303
 21
9.904252
 31
0.0
  0
LINE
  5
170
100
AcDbEntity
  8
Layer_1
 62
1
100
AcDbLine
 10
7.110303
 20
9.904252
 30
0.0
 11
8.215166
 21
10.361903
 31
0.0
  0
LINE
  5
171
100
AcDbEntity
  8
Layer_1
 62
1
100
AcDbLine
 10
8.215166
 20
10.361903
 30
0.0
 11
9.320029
 21
9.904252
 31
0.0
  0
LINE
  5
172
100
AcDbEntity
  8
Layer_1
 62
1
100
AcDbLine
 10
9.320029
 20
9.904252
 30
0.0
 11
9.777678
 21
8.799408
 31
0.0
  0
LINE
  5
173
100
AcDbEntity
  8
Layer_1
 62
1
100
AcDbLine
 10
9.777678
 20
8.799408
 30
0.0
 11
9.777678
 21
8.799408
 31
0.0
  0
ENDSEC
  0
SECTION
  2
OBJECTS
  0
DICTIONARY
  5
C
330
0
100
AcDbDictionary
  3
ACAD_GROUP
350
D
  3
ACAD_MLINESTYLE
350
17
  0
DICTIONARY
  5
D
330
C
100
AcDbDictionary
  0
DICTIONARY
  5
1A
330
C
100
AcDbDictionary
  0
DICTIONARY
  5
17
330
C
100
AcDbDictionary
  3
STANDARD
350
18
  0
DICTIONARY
  5
19
330
C
100
AcDbDictionary
  0
ENDSEC
  0
EOF
